G04 #@! TF.GenerationSoftware,KiCad,Pcbnew,(5.1.2)-1*
G04 #@! TF.CreationDate,2019-05-11T09:03:38-04:00*
G04 #@! TF.ProjectId,PowerSupply,506f7765-7253-4757-9070-6c792e6b6963,1*
G04 #@! TF.SameCoordinates,Original*
G04 #@! TF.FileFunction,Legend,Top*
G04 #@! TF.FilePolarity,Positive*
%FSLAX46Y46*%
G04 Gerber Fmt 4.6, Leading zero omitted, Abs format (unit mm)*
G04 Created by KiCad (PCBNEW (5.1.2)-1) date 2019-05-11 09:03:38*
%MOMM*%
%LPD*%
G04 APERTURE LIST*
%ADD10C,0.150000*%
%ADD11C,0.250000*%
%ADD12C,0.120000*%
%ADD13C,0.100000*%
%ADD14C,0.125000*%
G04 APERTURE END LIST*
D10*
X119340380Y-126872666D02*
X119340380Y-127348857D01*
X119816571Y-127396476D01*
X119768952Y-127348857D01*
X119721333Y-127253619D01*
X119721333Y-127015523D01*
X119768952Y-126920285D01*
X119816571Y-126872666D01*
X119911809Y-126825047D01*
X120149904Y-126825047D01*
X120245142Y-126872666D01*
X120292761Y-126920285D01*
X120340380Y-127015523D01*
X120340380Y-127253619D01*
X120292761Y-127348857D01*
X120245142Y-127396476D01*
X119340380Y-125967904D02*
X119340380Y-126158380D01*
X119388000Y-126253619D01*
X119435619Y-126301238D01*
X119578476Y-126396476D01*
X119768952Y-126444095D01*
X120149904Y-126444095D01*
X120245142Y-126396476D01*
X120292761Y-126348857D01*
X120340380Y-126253619D01*
X120340380Y-126063142D01*
X120292761Y-125967904D01*
X120245142Y-125920285D01*
X120149904Y-125872666D01*
X119911809Y-125872666D01*
X119816571Y-125920285D01*
X119768952Y-125967904D01*
X119721333Y-126063142D01*
X119721333Y-126253619D01*
X119768952Y-126348857D01*
X119816571Y-126396476D01*
X119911809Y-126444095D01*
X119340380Y-125253619D02*
X119340380Y-125158380D01*
X119388000Y-125063142D01*
X119435619Y-125015523D01*
X119530857Y-124967904D01*
X119721333Y-124920285D01*
X119959428Y-124920285D01*
X120149904Y-124967904D01*
X120245142Y-125015523D01*
X120292761Y-125063142D01*
X120340380Y-125158380D01*
X120340380Y-125253619D01*
X120292761Y-125348857D01*
X120245142Y-125396476D01*
X120149904Y-125444095D01*
X119959428Y-125491714D01*
X119721333Y-125491714D01*
X119530857Y-125444095D01*
X119435619Y-125396476D01*
X119388000Y-125348857D01*
X119340380Y-125253619D01*
X120340380Y-123586952D02*
X120292761Y-123682190D01*
X120245142Y-123729809D01*
X120149904Y-123777428D01*
X119864190Y-123777428D01*
X119768952Y-123729809D01*
X119721333Y-123682190D01*
X119673714Y-123586952D01*
X119673714Y-123444095D01*
X119721333Y-123348857D01*
X119768952Y-123301238D01*
X119864190Y-123253619D01*
X120149904Y-123253619D01*
X120245142Y-123301238D01*
X120292761Y-123348857D01*
X120340380Y-123444095D01*
X120340380Y-123586952D01*
X120340380Y-122825047D02*
X119340380Y-122825047D01*
X120340380Y-122396476D02*
X119816571Y-122396476D01*
X119721333Y-122444095D01*
X119673714Y-122539333D01*
X119673714Y-122682190D01*
X119721333Y-122777428D01*
X119768952Y-122825047D01*
X120340380Y-121920285D02*
X119673714Y-121920285D01*
X119768952Y-121920285D02*
X119721333Y-121872666D01*
X119673714Y-121777428D01*
X119673714Y-121634571D01*
X119721333Y-121539333D01*
X119816571Y-121491714D01*
X120340380Y-121491714D01*
X119816571Y-121491714D02*
X119721333Y-121444095D01*
X119673714Y-121348857D01*
X119673714Y-121206000D01*
X119721333Y-121110761D01*
X119816571Y-121063142D01*
X120340380Y-121063142D01*
X113752380Y-95630666D02*
X113752380Y-96106857D01*
X114228571Y-96154476D01*
X114180952Y-96106857D01*
X114133333Y-96011619D01*
X114133333Y-95773523D01*
X114180952Y-95678285D01*
X114228571Y-95630666D01*
X114323809Y-95583047D01*
X114561904Y-95583047D01*
X114657142Y-95630666D01*
X114704761Y-95678285D01*
X114752380Y-95773523D01*
X114752380Y-96011619D01*
X114704761Y-96106857D01*
X114657142Y-96154476D01*
X113752380Y-94725904D02*
X113752380Y-94916380D01*
X113800000Y-95011619D01*
X113847619Y-95059238D01*
X113990476Y-95154476D01*
X114180952Y-95202095D01*
X114561904Y-95202095D01*
X114657142Y-95154476D01*
X114704761Y-95106857D01*
X114752380Y-95011619D01*
X114752380Y-94821142D01*
X114704761Y-94725904D01*
X114657142Y-94678285D01*
X114561904Y-94630666D01*
X114323809Y-94630666D01*
X114228571Y-94678285D01*
X114180952Y-94725904D01*
X114133333Y-94821142D01*
X114133333Y-95011619D01*
X114180952Y-95106857D01*
X114228571Y-95154476D01*
X114323809Y-95202095D01*
X113752380Y-94011619D02*
X113752380Y-93916380D01*
X113800000Y-93821142D01*
X113847619Y-93773523D01*
X113942857Y-93725904D01*
X114133333Y-93678285D01*
X114371428Y-93678285D01*
X114561904Y-93725904D01*
X114657142Y-93773523D01*
X114704761Y-93821142D01*
X114752380Y-93916380D01*
X114752380Y-94011619D01*
X114704761Y-94106857D01*
X114657142Y-94154476D01*
X114561904Y-94202095D01*
X114371428Y-94249714D01*
X114133333Y-94249714D01*
X113942857Y-94202095D01*
X113847619Y-94154476D01*
X113800000Y-94106857D01*
X113752380Y-94011619D01*
X114752380Y-92344952D02*
X114704761Y-92440190D01*
X114657142Y-92487809D01*
X114561904Y-92535428D01*
X114276190Y-92535428D01*
X114180952Y-92487809D01*
X114133333Y-92440190D01*
X114085714Y-92344952D01*
X114085714Y-92202095D01*
X114133333Y-92106857D01*
X114180952Y-92059238D01*
X114276190Y-92011619D01*
X114561904Y-92011619D01*
X114657142Y-92059238D01*
X114704761Y-92106857D01*
X114752380Y-92202095D01*
X114752380Y-92344952D01*
X114752380Y-91583047D02*
X113752380Y-91583047D01*
X114752380Y-91154476D02*
X114228571Y-91154476D01*
X114133333Y-91202095D01*
X114085714Y-91297333D01*
X114085714Y-91440190D01*
X114133333Y-91535428D01*
X114180952Y-91583047D01*
X114752380Y-90678285D02*
X114085714Y-90678285D01*
X114180952Y-90678285D02*
X114133333Y-90630666D01*
X114085714Y-90535428D01*
X114085714Y-90392571D01*
X114133333Y-90297333D01*
X114228571Y-90249714D01*
X114752380Y-90249714D01*
X114228571Y-90249714D02*
X114133333Y-90202095D01*
X114085714Y-90106857D01*
X114085714Y-89964000D01*
X114133333Y-89868761D01*
X114228571Y-89821142D01*
X114752380Y-89821142D01*
X114038190Y-83986714D02*
X114038190Y-84653380D01*
X113800095Y-83605761D02*
X113562000Y-84320047D01*
X114181047Y-84320047D01*
X114466761Y-83653380D02*
X115133428Y-83653380D01*
X114704857Y-84653380D01*
X115942952Y-83986714D02*
X115942952Y-84653380D01*
X115514380Y-83986714D02*
X115514380Y-84510523D01*
X115562000Y-84605761D01*
X115657238Y-84653380D01*
X115800095Y-84653380D01*
X115895333Y-84605761D01*
X115942952Y-84558142D01*
X116276285Y-83986714D02*
X116657238Y-83986714D01*
X116419142Y-84653380D02*
X116419142Y-83796238D01*
X116466761Y-83701000D01*
X116562000Y-83653380D01*
X116657238Y-83653380D01*
X102767000Y-87796714D02*
X102767000Y-88463380D01*
X102528904Y-87415761D02*
X102290809Y-88130047D01*
X102909857Y-88130047D01*
X103195571Y-87463380D02*
X103862238Y-87463380D01*
X103433666Y-88463380D01*
X104433666Y-87463380D02*
X104528904Y-87463380D01*
X104624142Y-87511000D01*
X104671761Y-87558619D01*
X104719380Y-87653857D01*
X104767000Y-87844333D01*
X104767000Y-88082428D01*
X104719380Y-88272904D01*
X104671761Y-88368142D01*
X104624142Y-88415761D01*
X104528904Y-88463380D01*
X104433666Y-88463380D01*
X104338428Y-88415761D01*
X104290809Y-88368142D01*
X104243190Y-88272904D01*
X104195571Y-88082428D01*
X104195571Y-87844333D01*
X104243190Y-87653857D01*
X104290809Y-87558619D01*
X104338428Y-87511000D01*
X104433666Y-87463380D01*
X105624142Y-87796714D02*
X105624142Y-88463380D01*
X105195571Y-87796714D02*
X105195571Y-88320523D01*
X105243190Y-88415761D01*
X105338428Y-88463380D01*
X105481285Y-88463380D01*
X105576523Y-88415761D01*
X105624142Y-88368142D01*
X105957476Y-87796714D02*
X106338428Y-87796714D01*
X106100333Y-88463380D02*
X106100333Y-87606238D01*
X106147952Y-87511000D01*
X106243190Y-87463380D01*
X106338428Y-87463380D01*
D11*
X124307714Y-80934000D02*
X124193428Y-80876857D01*
X124022000Y-80876857D01*
X123850571Y-80934000D01*
X123736285Y-81048285D01*
X123679142Y-81162571D01*
X123622000Y-81391142D01*
X123622000Y-81562571D01*
X123679142Y-81791142D01*
X123736285Y-81905428D01*
X123850571Y-82019714D01*
X124022000Y-82076857D01*
X124136285Y-82076857D01*
X124307714Y-82019714D01*
X124364857Y-81962571D01*
X124364857Y-81562571D01*
X124136285Y-81562571D01*
X124879142Y-82076857D02*
X124879142Y-80876857D01*
X125564857Y-82076857D01*
X125564857Y-80876857D01*
X126136285Y-82076857D02*
X126136285Y-80876857D01*
X126422000Y-80876857D01*
X126593428Y-80934000D01*
X126707714Y-81048285D01*
X126764857Y-81162571D01*
X126822000Y-81391142D01*
X126822000Y-81562571D01*
X126764857Y-81791142D01*
X126707714Y-81905428D01*
X126593428Y-82019714D01*
X126422000Y-82076857D01*
X126136285Y-82076857D01*
X124307714Y-125765000D02*
X124193428Y-125707857D01*
X124022000Y-125707857D01*
X123850571Y-125765000D01*
X123736285Y-125879285D01*
X123679142Y-125993571D01*
X123622000Y-126222142D01*
X123622000Y-126393571D01*
X123679142Y-126622142D01*
X123736285Y-126736428D01*
X123850571Y-126850714D01*
X124022000Y-126907857D01*
X124136285Y-126907857D01*
X124307714Y-126850714D01*
X124364857Y-126793571D01*
X124364857Y-126393571D01*
X124136285Y-126393571D01*
X124879142Y-126907857D02*
X124879142Y-125707857D01*
X125564857Y-126907857D01*
X125564857Y-125707857D01*
X126136285Y-126907857D02*
X126136285Y-125707857D01*
X126422000Y-125707857D01*
X126593428Y-125765000D01*
X126707714Y-125879285D01*
X126764857Y-125993571D01*
X126822000Y-126222142D01*
X126822000Y-126393571D01*
X126764857Y-126622142D01*
X126707714Y-126736428D01*
X126593428Y-126850714D01*
X126422000Y-126907857D01*
X126136285Y-126907857D01*
X125317285Y-78299571D02*
X124603000Y-78299571D01*
X124531571Y-79013857D01*
X124603000Y-78942428D01*
X124745857Y-78871000D01*
X125103000Y-78871000D01*
X125245857Y-78942428D01*
X125317285Y-79013857D01*
X125388714Y-79156714D01*
X125388714Y-79513857D01*
X125317285Y-79656714D01*
X125245857Y-79728142D01*
X125103000Y-79799571D01*
X124745857Y-79799571D01*
X124603000Y-79728142D01*
X124531571Y-79656714D01*
X125817285Y-78299571D02*
X126317285Y-79799571D01*
X126817285Y-78299571D01*
X125190285Y-123130571D02*
X124476000Y-123130571D01*
X124404571Y-123844857D01*
X124476000Y-123773428D01*
X124618857Y-123702000D01*
X124976000Y-123702000D01*
X125118857Y-123773428D01*
X125190285Y-123844857D01*
X125261714Y-123987714D01*
X125261714Y-124344857D01*
X125190285Y-124487714D01*
X125118857Y-124559142D01*
X124976000Y-124630571D01*
X124618857Y-124630571D01*
X124476000Y-124559142D01*
X124404571Y-124487714D01*
X125690285Y-123130571D02*
X126190285Y-124630571D01*
X126690285Y-123130571D01*
D12*
X106881000Y-106861000D02*
X106881000Y-109801000D01*
X106881000Y-109801000D02*
X112321000Y-109801000D01*
X112321000Y-109801000D02*
X112321000Y-106861000D01*
X112321000Y-106861000D02*
X106881000Y-106861000D01*
X105861000Y-108331000D02*
X106881000Y-108331000D01*
X113341000Y-108331000D02*
X112321000Y-108331000D01*
X107781000Y-106861000D02*
X107781000Y-109801000D01*
X107901000Y-106861000D02*
X107901000Y-109801000D01*
X107661000Y-106861000D02*
X107661000Y-109801000D01*
X117829000Y-88170000D02*
X117499000Y-88170000D01*
X117829000Y-94710000D02*
X117829000Y-88170000D01*
X117499000Y-94710000D02*
X117829000Y-94710000D01*
X115089000Y-88170000D02*
X115419000Y-88170000D01*
X115089000Y-94710000D02*
X115089000Y-88170000D01*
X115419000Y-94710000D02*
X115089000Y-94710000D01*
X112776000Y-82114000D02*
G75*
G03X112776000Y-82114000I-5120000J0D01*
G01*
X107656000Y-77034000D02*
X107656000Y-87194000D01*
X107696000Y-77034000D02*
X107696000Y-87194000D01*
X107736000Y-77034000D02*
X107736000Y-87194000D01*
X107776000Y-77035000D02*
X107776000Y-87193000D01*
X107816000Y-77036000D02*
X107816000Y-87192000D01*
X107856000Y-77037000D02*
X107856000Y-87191000D01*
X107896000Y-77039000D02*
X107896000Y-87189000D01*
X107936000Y-77041000D02*
X107936000Y-87187000D01*
X107976000Y-77044000D02*
X107976000Y-87184000D01*
X108016000Y-77046000D02*
X108016000Y-87182000D01*
X108056000Y-77049000D02*
X108056000Y-87179000D01*
X108096000Y-77052000D02*
X108096000Y-87176000D01*
X108136000Y-77056000D02*
X108136000Y-87172000D01*
X108176000Y-77060000D02*
X108176000Y-87168000D01*
X108216000Y-77064000D02*
X108216000Y-87164000D01*
X108256000Y-77069000D02*
X108256000Y-87159000D01*
X108296000Y-77074000D02*
X108296000Y-87154000D01*
X108336000Y-77079000D02*
X108336000Y-87149000D01*
X108377000Y-77084000D02*
X108377000Y-87144000D01*
X108417000Y-77090000D02*
X108417000Y-87138000D01*
X108457000Y-77096000D02*
X108457000Y-87132000D01*
X108497000Y-77103000D02*
X108497000Y-87125000D01*
X108537000Y-77110000D02*
X108537000Y-87118000D01*
X108577000Y-77117000D02*
X108577000Y-87111000D01*
X108617000Y-77124000D02*
X108617000Y-87104000D01*
X108657000Y-77132000D02*
X108657000Y-87096000D01*
X108697000Y-77140000D02*
X108697000Y-87088000D01*
X108737000Y-77149000D02*
X108737000Y-87079000D01*
X108777000Y-77158000D02*
X108777000Y-87070000D01*
X108817000Y-77167000D02*
X108817000Y-87061000D01*
X108857000Y-77176000D02*
X108857000Y-87052000D01*
X108897000Y-77186000D02*
X108897000Y-87042000D01*
X108937000Y-77196000D02*
X108937000Y-80873000D01*
X108937000Y-83355000D02*
X108937000Y-87032000D01*
X108977000Y-77207000D02*
X108977000Y-80873000D01*
X108977000Y-83355000D02*
X108977000Y-87021000D01*
X109017000Y-77217000D02*
X109017000Y-80873000D01*
X109017000Y-83355000D02*
X109017000Y-87011000D01*
X109057000Y-77229000D02*
X109057000Y-80873000D01*
X109057000Y-83355000D02*
X109057000Y-86999000D01*
X109097000Y-77240000D02*
X109097000Y-80873000D01*
X109097000Y-83355000D02*
X109097000Y-86988000D01*
X109137000Y-77252000D02*
X109137000Y-80873000D01*
X109137000Y-83355000D02*
X109137000Y-86976000D01*
X109177000Y-77264000D02*
X109177000Y-80873000D01*
X109177000Y-83355000D02*
X109177000Y-86964000D01*
X109217000Y-77277000D02*
X109217000Y-80873000D01*
X109217000Y-83355000D02*
X109217000Y-86951000D01*
X109257000Y-77290000D02*
X109257000Y-80873000D01*
X109257000Y-83355000D02*
X109257000Y-86938000D01*
X109297000Y-77303000D02*
X109297000Y-80873000D01*
X109297000Y-83355000D02*
X109297000Y-86925000D01*
X109337000Y-77317000D02*
X109337000Y-80873000D01*
X109337000Y-83355000D02*
X109337000Y-86911000D01*
X109377000Y-77331000D02*
X109377000Y-80873000D01*
X109377000Y-83355000D02*
X109377000Y-86897000D01*
X109417000Y-77346000D02*
X109417000Y-80873000D01*
X109417000Y-83355000D02*
X109417000Y-86882000D01*
X109457000Y-77360000D02*
X109457000Y-80873000D01*
X109457000Y-83355000D02*
X109457000Y-86868000D01*
X109497000Y-77376000D02*
X109497000Y-80873000D01*
X109497000Y-83355000D02*
X109497000Y-86852000D01*
X109537000Y-77391000D02*
X109537000Y-80873000D01*
X109537000Y-83355000D02*
X109537000Y-86837000D01*
X109577000Y-77407000D02*
X109577000Y-80873000D01*
X109577000Y-83355000D02*
X109577000Y-86821000D01*
X109617000Y-77424000D02*
X109617000Y-80873000D01*
X109617000Y-83355000D02*
X109617000Y-86804000D01*
X109657000Y-77440000D02*
X109657000Y-80873000D01*
X109657000Y-83355000D02*
X109657000Y-86788000D01*
X109697000Y-77457000D02*
X109697000Y-80873000D01*
X109697000Y-83355000D02*
X109697000Y-86771000D01*
X109737000Y-77475000D02*
X109737000Y-80873000D01*
X109737000Y-83355000D02*
X109737000Y-86753000D01*
X109777000Y-77493000D02*
X109777000Y-80873000D01*
X109777000Y-83355000D02*
X109777000Y-86735000D01*
X109817000Y-77511000D02*
X109817000Y-80873000D01*
X109817000Y-83355000D02*
X109817000Y-86717000D01*
X109857000Y-77530000D02*
X109857000Y-80873000D01*
X109857000Y-83355000D02*
X109857000Y-86698000D01*
X109897000Y-77550000D02*
X109897000Y-80873000D01*
X109897000Y-83355000D02*
X109897000Y-86678000D01*
X109937000Y-77569000D02*
X109937000Y-80873000D01*
X109937000Y-83355000D02*
X109937000Y-86659000D01*
X109977000Y-77589000D02*
X109977000Y-80873000D01*
X109977000Y-83355000D02*
X109977000Y-86639000D01*
X110017000Y-77610000D02*
X110017000Y-80873000D01*
X110017000Y-83355000D02*
X110017000Y-86618000D01*
X110057000Y-77631000D02*
X110057000Y-80873000D01*
X110057000Y-83355000D02*
X110057000Y-86597000D01*
X110097000Y-77652000D02*
X110097000Y-80873000D01*
X110097000Y-83355000D02*
X110097000Y-86576000D01*
X110137000Y-77674000D02*
X110137000Y-80873000D01*
X110137000Y-83355000D02*
X110137000Y-86554000D01*
X110177000Y-77697000D02*
X110177000Y-80873000D01*
X110177000Y-83355000D02*
X110177000Y-86531000D01*
X110217000Y-77719000D02*
X110217000Y-80873000D01*
X110217000Y-83355000D02*
X110217000Y-86509000D01*
X110257000Y-77743000D02*
X110257000Y-80873000D01*
X110257000Y-83355000D02*
X110257000Y-86485000D01*
X110297000Y-77767000D02*
X110297000Y-80873000D01*
X110297000Y-83355000D02*
X110297000Y-86461000D01*
X110337000Y-77791000D02*
X110337000Y-80873000D01*
X110337000Y-83355000D02*
X110337000Y-86437000D01*
X110377000Y-77816000D02*
X110377000Y-80873000D01*
X110377000Y-83355000D02*
X110377000Y-86412000D01*
X110417000Y-77841000D02*
X110417000Y-80873000D01*
X110417000Y-83355000D02*
X110417000Y-86387000D01*
X110457000Y-77867000D02*
X110457000Y-80873000D01*
X110457000Y-83355000D02*
X110457000Y-86361000D01*
X110497000Y-77893000D02*
X110497000Y-80873000D01*
X110497000Y-83355000D02*
X110497000Y-86335000D01*
X110537000Y-77920000D02*
X110537000Y-80873000D01*
X110537000Y-83355000D02*
X110537000Y-86308000D01*
X110577000Y-77948000D02*
X110577000Y-80873000D01*
X110577000Y-83355000D02*
X110577000Y-86280000D01*
X110617000Y-77976000D02*
X110617000Y-80873000D01*
X110617000Y-83355000D02*
X110617000Y-86252000D01*
X110657000Y-78004000D02*
X110657000Y-80873000D01*
X110657000Y-83355000D02*
X110657000Y-86224000D01*
X110697000Y-78034000D02*
X110697000Y-80873000D01*
X110697000Y-83355000D02*
X110697000Y-86194000D01*
X110737000Y-78064000D02*
X110737000Y-80873000D01*
X110737000Y-83355000D02*
X110737000Y-86164000D01*
X110777000Y-78094000D02*
X110777000Y-80873000D01*
X110777000Y-83355000D02*
X110777000Y-86134000D01*
X110817000Y-78125000D02*
X110817000Y-80873000D01*
X110817000Y-83355000D02*
X110817000Y-86103000D01*
X110857000Y-78157000D02*
X110857000Y-80873000D01*
X110857000Y-83355000D02*
X110857000Y-86071000D01*
X110897000Y-78189000D02*
X110897000Y-80873000D01*
X110897000Y-83355000D02*
X110897000Y-86039000D01*
X110937000Y-78222000D02*
X110937000Y-80873000D01*
X110937000Y-83355000D02*
X110937000Y-86006000D01*
X110977000Y-78256000D02*
X110977000Y-80873000D01*
X110977000Y-83355000D02*
X110977000Y-85972000D01*
X111017000Y-78290000D02*
X111017000Y-80873000D01*
X111017000Y-83355000D02*
X111017000Y-85938000D01*
X111057000Y-78325000D02*
X111057000Y-80873000D01*
X111057000Y-83355000D02*
X111057000Y-85903000D01*
X111097000Y-78361000D02*
X111097000Y-80873000D01*
X111097000Y-83355000D02*
X111097000Y-85867000D01*
X111137000Y-78398000D02*
X111137000Y-80873000D01*
X111137000Y-83355000D02*
X111137000Y-85830000D01*
X111177000Y-78435000D02*
X111177000Y-80873000D01*
X111177000Y-83355000D02*
X111177000Y-85793000D01*
X111217000Y-78474000D02*
X111217000Y-80873000D01*
X111217000Y-83355000D02*
X111217000Y-85754000D01*
X111257000Y-78513000D02*
X111257000Y-80873000D01*
X111257000Y-83355000D02*
X111257000Y-85715000D01*
X111297000Y-78553000D02*
X111297000Y-80873000D01*
X111297000Y-83355000D02*
X111297000Y-85675000D01*
X111337000Y-78594000D02*
X111337000Y-80873000D01*
X111337000Y-83355000D02*
X111337000Y-85634000D01*
X111377000Y-78636000D02*
X111377000Y-80873000D01*
X111377000Y-83355000D02*
X111377000Y-85592000D01*
X111417000Y-78678000D02*
X111417000Y-85550000D01*
X111457000Y-78722000D02*
X111457000Y-85506000D01*
X111497000Y-78767000D02*
X111497000Y-85461000D01*
X111537000Y-78813000D02*
X111537000Y-85415000D01*
X111577000Y-78860000D02*
X111577000Y-85368000D01*
X111617000Y-78908000D02*
X111617000Y-85320000D01*
X111657000Y-78958000D02*
X111657000Y-85270000D01*
X111697000Y-79008000D02*
X111697000Y-85220000D01*
X111737000Y-79060000D02*
X111737000Y-85168000D01*
X111777000Y-79114000D02*
X111777000Y-85114000D01*
X111817000Y-79169000D02*
X111817000Y-85059000D01*
X111857000Y-79225000D02*
X111857000Y-85003000D01*
X111897000Y-79284000D02*
X111897000Y-84944000D01*
X111937000Y-79344000D02*
X111937000Y-84884000D01*
X111977000Y-79405000D02*
X111977000Y-84823000D01*
X112017000Y-79469000D02*
X112017000Y-84759000D01*
X112057000Y-79535000D02*
X112057000Y-84693000D01*
X112097000Y-79604000D02*
X112097000Y-84624000D01*
X112137000Y-79675000D02*
X112137000Y-84553000D01*
X112177000Y-79749000D02*
X112177000Y-84479000D01*
X112217000Y-79825000D02*
X112217000Y-84403000D01*
X112257000Y-79905000D02*
X112257000Y-84323000D01*
X112297000Y-79989000D02*
X112297000Y-84239000D01*
X112337000Y-80077000D02*
X112337000Y-84151000D01*
X112377000Y-80170000D02*
X112377000Y-84058000D01*
X112417000Y-80268000D02*
X112417000Y-83960000D01*
X112457000Y-80372000D02*
X112457000Y-83856000D01*
X112497000Y-80484000D02*
X112497000Y-83744000D01*
X112537000Y-80604000D02*
X112537000Y-83624000D01*
X112577000Y-80736000D02*
X112577000Y-83492000D01*
X112617000Y-80884000D02*
X112617000Y-83344000D01*
X112657000Y-81052000D02*
X112657000Y-83176000D01*
X112697000Y-81252000D02*
X112697000Y-82976000D01*
X112737000Y-81515000D02*
X112737000Y-82713000D01*
X102176354Y-79239000D02*
X103176354Y-79239000D01*
X102676354Y-78739000D02*
X102676354Y-79739000D01*
X120217000Y-80264000D02*
G75*
G03X120217000Y-80264000I-3270000J0D01*
G01*
X116947000Y-77034000D02*
X116947000Y-83494000D01*
X116987000Y-77034000D02*
X116987000Y-83494000D01*
X117027000Y-77034000D02*
X117027000Y-83494000D01*
X117067000Y-77036000D02*
X117067000Y-83492000D01*
X117107000Y-77037000D02*
X117107000Y-83491000D01*
X117147000Y-77040000D02*
X117147000Y-83488000D01*
X117187000Y-77042000D02*
X117187000Y-79224000D01*
X117187000Y-81304000D02*
X117187000Y-83486000D01*
X117227000Y-77046000D02*
X117227000Y-79224000D01*
X117227000Y-81304000D02*
X117227000Y-83482000D01*
X117267000Y-77049000D02*
X117267000Y-79224000D01*
X117267000Y-81304000D02*
X117267000Y-83479000D01*
X117307000Y-77053000D02*
X117307000Y-79224000D01*
X117307000Y-81304000D02*
X117307000Y-83475000D01*
X117347000Y-77058000D02*
X117347000Y-79224000D01*
X117347000Y-81304000D02*
X117347000Y-83470000D01*
X117387000Y-77063000D02*
X117387000Y-79224000D01*
X117387000Y-81304000D02*
X117387000Y-83465000D01*
X117427000Y-77069000D02*
X117427000Y-79224000D01*
X117427000Y-81304000D02*
X117427000Y-83459000D01*
X117467000Y-77075000D02*
X117467000Y-79224000D01*
X117467000Y-81304000D02*
X117467000Y-83453000D01*
X117507000Y-77082000D02*
X117507000Y-79224000D01*
X117507000Y-81304000D02*
X117507000Y-83446000D01*
X117547000Y-77089000D02*
X117547000Y-79224000D01*
X117547000Y-81304000D02*
X117547000Y-83439000D01*
X117587000Y-77097000D02*
X117587000Y-79224000D01*
X117587000Y-81304000D02*
X117587000Y-83431000D01*
X117627000Y-77105000D02*
X117627000Y-79224000D01*
X117627000Y-81304000D02*
X117627000Y-83423000D01*
X117668000Y-77114000D02*
X117668000Y-79224000D01*
X117668000Y-81304000D02*
X117668000Y-83414000D01*
X117708000Y-77123000D02*
X117708000Y-79224000D01*
X117708000Y-81304000D02*
X117708000Y-83405000D01*
X117748000Y-77133000D02*
X117748000Y-79224000D01*
X117748000Y-81304000D02*
X117748000Y-83395000D01*
X117788000Y-77143000D02*
X117788000Y-79224000D01*
X117788000Y-81304000D02*
X117788000Y-83385000D01*
X117828000Y-77154000D02*
X117828000Y-79224000D01*
X117828000Y-81304000D02*
X117828000Y-83374000D01*
X117868000Y-77166000D02*
X117868000Y-79224000D01*
X117868000Y-81304000D02*
X117868000Y-83362000D01*
X117908000Y-77178000D02*
X117908000Y-79224000D01*
X117908000Y-81304000D02*
X117908000Y-83350000D01*
X117948000Y-77190000D02*
X117948000Y-79224000D01*
X117948000Y-81304000D02*
X117948000Y-83338000D01*
X117988000Y-77203000D02*
X117988000Y-79224000D01*
X117988000Y-81304000D02*
X117988000Y-83325000D01*
X118028000Y-77217000D02*
X118028000Y-79224000D01*
X118028000Y-81304000D02*
X118028000Y-83311000D01*
X118068000Y-77231000D02*
X118068000Y-79224000D01*
X118068000Y-81304000D02*
X118068000Y-83297000D01*
X118108000Y-77246000D02*
X118108000Y-79224000D01*
X118108000Y-81304000D02*
X118108000Y-83282000D01*
X118148000Y-77262000D02*
X118148000Y-79224000D01*
X118148000Y-81304000D02*
X118148000Y-83266000D01*
X118188000Y-77278000D02*
X118188000Y-79224000D01*
X118188000Y-81304000D02*
X118188000Y-83250000D01*
X118228000Y-77294000D02*
X118228000Y-79224000D01*
X118228000Y-81304000D02*
X118228000Y-83234000D01*
X118268000Y-77312000D02*
X118268000Y-79224000D01*
X118268000Y-81304000D02*
X118268000Y-83216000D01*
X118308000Y-77330000D02*
X118308000Y-79224000D01*
X118308000Y-81304000D02*
X118308000Y-83198000D01*
X118348000Y-77348000D02*
X118348000Y-79224000D01*
X118348000Y-81304000D02*
X118348000Y-83180000D01*
X118388000Y-77368000D02*
X118388000Y-79224000D01*
X118388000Y-81304000D02*
X118388000Y-83160000D01*
X118428000Y-77388000D02*
X118428000Y-79224000D01*
X118428000Y-81304000D02*
X118428000Y-83140000D01*
X118468000Y-77408000D02*
X118468000Y-79224000D01*
X118468000Y-81304000D02*
X118468000Y-83120000D01*
X118508000Y-77430000D02*
X118508000Y-79224000D01*
X118508000Y-81304000D02*
X118508000Y-83098000D01*
X118548000Y-77452000D02*
X118548000Y-79224000D01*
X118548000Y-81304000D02*
X118548000Y-83076000D01*
X118588000Y-77474000D02*
X118588000Y-79224000D01*
X118588000Y-81304000D02*
X118588000Y-83054000D01*
X118628000Y-77498000D02*
X118628000Y-79224000D01*
X118628000Y-81304000D02*
X118628000Y-83030000D01*
X118668000Y-77522000D02*
X118668000Y-79224000D01*
X118668000Y-81304000D02*
X118668000Y-83006000D01*
X118708000Y-77548000D02*
X118708000Y-79224000D01*
X118708000Y-81304000D02*
X118708000Y-82980000D01*
X118748000Y-77574000D02*
X118748000Y-79224000D01*
X118748000Y-81304000D02*
X118748000Y-82954000D01*
X118788000Y-77600000D02*
X118788000Y-79224000D01*
X118788000Y-81304000D02*
X118788000Y-82928000D01*
X118828000Y-77628000D02*
X118828000Y-79224000D01*
X118828000Y-81304000D02*
X118828000Y-82900000D01*
X118868000Y-77657000D02*
X118868000Y-79224000D01*
X118868000Y-81304000D02*
X118868000Y-82871000D01*
X118908000Y-77686000D02*
X118908000Y-79224000D01*
X118908000Y-81304000D02*
X118908000Y-82842000D01*
X118948000Y-77716000D02*
X118948000Y-79224000D01*
X118948000Y-81304000D02*
X118948000Y-82812000D01*
X118988000Y-77748000D02*
X118988000Y-79224000D01*
X118988000Y-81304000D02*
X118988000Y-82780000D01*
X119028000Y-77780000D02*
X119028000Y-79224000D01*
X119028000Y-81304000D02*
X119028000Y-82748000D01*
X119068000Y-77814000D02*
X119068000Y-79224000D01*
X119068000Y-81304000D02*
X119068000Y-82714000D01*
X119108000Y-77848000D02*
X119108000Y-79224000D01*
X119108000Y-81304000D02*
X119108000Y-82680000D01*
X119148000Y-77884000D02*
X119148000Y-79224000D01*
X119148000Y-81304000D02*
X119148000Y-82644000D01*
X119188000Y-77921000D02*
X119188000Y-79224000D01*
X119188000Y-81304000D02*
X119188000Y-82607000D01*
X119228000Y-77959000D02*
X119228000Y-79224000D01*
X119228000Y-81304000D02*
X119228000Y-82569000D01*
X119268000Y-77999000D02*
X119268000Y-82529000D01*
X119308000Y-78040000D02*
X119308000Y-82488000D01*
X119348000Y-78082000D02*
X119348000Y-82446000D01*
X119388000Y-78127000D02*
X119388000Y-82401000D01*
X119428000Y-78172000D02*
X119428000Y-82356000D01*
X119468000Y-78220000D02*
X119468000Y-82308000D01*
X119508000Y-78269000D02*
X119508000Y-82259000D01*
X119548000Y-78320000D02*
X119548000Y-82208000D01*
X119588000Y-78374000D02*
X119588000Y-82154000D01*
X119628000Y-78430000D02*
X119628000Y-82098000D01*
X119668000Y-78488000D02*
X119668000Y-82040000D01*
X119708000Y-78550000D02*
X119708000Y-81978000D01*
X119748000Y-78614000D02*
X119748000Y-81914000D01*
X119788000Y-78683000D02*
X119788000Y-81845000D01*
X119828000Y-78755000D02*
X119828000Y-81773000D01*
X119868000Y-78832000D02*
X119868000Y-81696000D01*
X119908000Y-78914000D02*
X119908000Y-81614000D01*
X119948000Y-79002000D02*
X119948000Y-81526000D01*
X119988000Y-79099000D02*
X119988000Y-81429000D01*
X120028000Y-79205000D02*
X120028000Y-81323000D01*
X120068000Y-79324000D02*
X120068000Y-81204000D01*
X120108000Y-79462000D02*
X120108000Y-81066000D01*
X120148000Y-79631000D02*
X120148000Y-80897000D01*
X120188000Y-79862000D02*
X120188000Y-80666000D01*
X113446759Y-78425000D02*
X114076759Y-78425000D01*
X113761759Y-78110000D02*
X113761759Y-78740000D01*
X106881000Y-98733000D02*
X106881000Y-101673000D01*
X106881000Y-101673000D02*
X112321000Y-101673000D01*
X112321000Y-101673000D02*
X112321000Y-98733000D01*
X112321000Y-98733000D02*
X106881000Y-98733000D01*
X105861000Y-100203000D02*
X106881000Y-100203000D01*
X113341000Y-100203000D02*
X112321000Y-100203000D01*
X107781000Y-98733000D02*
X107781000Y-101673000D01*
X107901000Y-98733000D02*
X107901000Y-101673000D01*
X107661000Y-98733000D02*
X107661000Y-101673000D01*
X107661000Y-110925000D02*
X107661000Y-113865000D01*
X107901000Y-110925000D02*
X107901000Y-113865000D01*
X107781000Y-110925000D02*
X107781000Y-113865000D01*
X113341000Y-112395000D02*
X112321000Y-112395000D01*
X105861000Y-112395000D02*
X106881000Y-112395000D01*
X112321000Y-110925000D02*
X106881000Y-110925000D01*
X112321000Y-113865000D02*
X112321000Y-110925000D01*
X106881000Y-113865000D02*
X112321000Y-113865000D01*
X106881000Y-110925000D02*
X106881000Y-113865000D01*
X107661000Y-102797000D02*
X107661000Y-105737000D01*
X107901000Y-102797000D02*
X107901000Y-105737000D01*
X107781000Y-102797000D02*
X107781000Y-105737000D01*
X113341000Y-104267000D02*
X112321000Y-104267000D01*
X105861000Y-104267000D02*
X106881000Y-104267000D01*
X112321000Y-102797000D02*
X106881000Y-102797000D01*
X112321000Y-105737000D02*
X112321000Y-102797000D01*
X106881000Y-105737000D02*
X112321000Y-105737000D01*
X106881000Y-102797000D02*
X106881000Y-105737000D01*
X120310000Y-110850000D02*
X120310000Y-113940000D01*
X125370000Y-112395000D02*
G75*
G03X125370000Y-112395000I-2500000J0D01*
G01*
X125860000Y-112394538D02*
G75*
G02X120310000Y-113939830I-2990000J-462D01*
G01*
X125860000Y-112395462D02*
G75*
G03X120310000Y-110850170I-2990000J462D01*
G01*
X125860000Y-90297462D02*
G75*
G03X120310000Y-88752170I-2990000J462D01*
G01*
X125860000Y-90296538D02*
G75*
G02X120310000Y-91841830I-2990000J-462D01*
G01*
X125370000Y-90297000D02*
G75*
G03X125370000Y-90297000I-2500000J0D01*
G01*
X120310000Y-88752000D02*
X120310000Y-91842000D01*
X111659000Y-126266000D02*
X102659000Y-126266000D01*
X102659000Y-126266000D02*
X102659000Y-117066000D01*
X102659000Y-117066000D02*
X117259000Y-117066000D01*
X117259000Y-117066000D02*
X117259000Y-119866000D01*
X117259000Y-123466000D02*
X117259000Y-126266000D01*
X117259000Y-126266000D02*
X115259000Y-126266000D01*
X115759000Y-116826000D02*
X117499000Y-116826000D01*
X117499000Y-116826000D02*
X117499000Y-118566000D01*
X127194000Y-82737000D02*
X132394000Y-82737000D01*
X127194000Y-80137000D02*
X127194000Y-82737000D01*
X132394000Y-77537000D02*
X132394000Y-82737000D01*
X127194000Y-80137000D02*
X129794000Y-80137000D01*
X129794000Y-80137000D02*
X129794000Y-77537000D01*
X129794000Y-77537000D02*
X132394000Y-77537000D01*
X127194000Y-78867000D02*
X127194000Y-77537000D01*
X127194000Y-77537000D02*
X128524000Y-77537000D01*
X127194000Y-122431000D02*
X128524000Y-122431000D01*
X127194000Y-123761000D02*
X127194000Y-122431000D01*
X129794000Y-122431000D02*
X132394000Y-122431000D01*
X129794000Y-125031000D02*
X129794000Y-122431000D01*
X127194000Y-125031000D02*
X129794000Y-125031000D01*
X132394000Y-122431000D02*
X132394000Y-127631000D01*
X127194000Y-125031000D02*
X127194000Y-127631000D01*
X127194000Y-127631000D02*
X132394000Y-127631000D01*
X121007000Y-125952000D02*
X120677000Y-125952000D01*
X120677000Y-125952000D02*
X120677000Y-119412000D01*
X120677000Y-119412000D02*
X121007000Y-119412000D01*
X123087000Y-125952000D02*
X123417000Y-125952000D01*
X123417000Y-125952000D02*
X123417000Y-119412000D01*
X123417000Y-119412000D02*
X123087000Y-119412000D01*
D13*
X124909000Y-95426000D02*
X124909000Y-95926000D01*
X124909000Y-95426000D02*
X124409000Y-95426000D01*
X124909000Y-107326000D02*
X124909000Y-106826000D01*
X124909000Y-107326000D02*
X124409000Y-107326000D01*
X120709000Y-107326000D02*
X120709000Y-106826000D01*
X120709000Y-107326000D02*
X121209000Y-107326000D01*
X120709000Y-95426000D02*
X121209000Y-95426000D01*
X120709000Y-95426000D02*
X120709000Y-95926000D01*
D12*
X102389000Y-90456000D02*
X112629000Y-90456000D01*
X102389000Y-95097000D02*
X112629000Y-95097000D01*
X102389000Y-90456000D02*
X102389000Y-95097000D01*
X112629000Y-90456000D02*
X112629000Y-95097000D01*
X102389000Y-91966000D02*
X112629000Y-91966000D01*
X105659000Y-90456000D02*
X105659000Y-91966000D01*
X109360000Y-90456000D02*
X109360000Y-91966000D01*
D14*
X106925333Y-106615666D02*
X106925333Y-105915666D01*
X107092000Y-105915666D01*
X107192000Y-105949000D01*
X107258666Y-106015666D01*
X107292000Y-106082333D01*
X107325333Y-106215666D01*
X107325333Y-106315666D01*
X107292000Y-106449000D01*
X107258666Y-106515666D01*
X107192000Y-106582333D01*
X107092000Y-106615666D01*
X106925333Y-106615666D01*
X107992000Y-106615666D02*
X107592000Y-106615666D01*
X107792000Y-106615666D02*
X107792000Y-105915666D01*
X107725333Y-106015666D01*
X107658666Y-106082333D01*
X107592000Y-106115666D01*
D10*
X104259095Y-106683380D02*
X104259095Y-105683380D01*
X104830523Y-106683380D02*
X104401952Y-106111952D01*
X104830523Y-105683380D02*
X104259095Y-106254809D01*
X114752380Y-87542666D02*
X114276190Y-87876000D01*
X114752380Y-88114095D02*
X113752380Y-88114095D01*
X113752380Y-87733142D01*
X113800000Y-87637904D01*
X113847619Y-87590285D01*
X113942857Y-87542666D01*
X114085714Y-87542666D01*
X114180952Y-87590285D01*
X114228571Y-87637904D01*
X114276190Y-87733142D01*
X114276190Y-88114095D01*
X113847619Y-87161714D02*
X113800000Y-87114095D01*
X113752380Y-87018857D01*
X113752380Y-86780761D01*
X113800000Y-86685523D01*
X113847619Y-86637904D01*
X113942857Y-86590285D01*
X114038095Y-86590285D01*
X114180952Y-86637904D01*
X114752380Y-87209333D01*
X114752380Y-86590285D01*
X102957333Y-77954142D02*
X102909714Y-78001761D01*
X102766857Y-78049380D01*
X102671619Y-78049380D01*
X102528761Y-78001761D01*
X102433523Y-77906523D01*
X102385904Y-77811285D01*
X102338285Y-77620809D01*
X102338285Y-77477952D01*
X102385904Y-77287476D01*
X102433523Y-77192238D01*
X102528761Y-77097000D01*
X102671619Y-77049380D01*
X102766857Y-77049380D01*
X102909714Y-77097000D01*
X102957333Y-77144619D01*
X103909714Y-78049380D02*
X103338285Y-78049380D01*
X103624000Y-78049380D02*
X103624000Y-77049380D01*
X103528761Y-77192238D01*
X103433523Y-77287476D01*
X103338285Y-77335095D01*
X113498333Y-77700142D02*
X113450714Y-77747761D01*
X113307857Y-77795380D01*
X113212619Y-77795380D01*
X113069761Y-77747761D01*
X112974523Y-77652523D01*
X112926904Y-77557285D01*
X112879285Y-77366809D01*
X112879285Y-77223952D01*
X112926904Y-77033476D01*
X112974523Y-76938238D01*
X113069761Y-76843000D01*
X113212619Y-76795380D01*
X113307857Y-76795380D01*
X113450714Y-76843000D01*
X113498333Y-76890619D01*
X113879285Y-76890619D02*
X113926904Y-76843000D01*
X114022142Y-76795380D01*
X114260238Y-76795380D01*
X114355476Y-76843000D01*
X114403095Y-76890619D01*
X114450714Y-76985857D01*
X114450714Y-77081095D01*
X114403095Y-77223952D01*
X113831666Y-77795380D01*
X114450714Y-77795380D01*
D14*
X106925333Y-98487666D02*
X106925333Y-97787666D01*
X107092000Y-97787666D01*
X107192000Y-97821000D01*
X107258666Y-97887666D01*
X107292000Y-97954333D01*
X107325333Y-98087666D01*
X107325333Y-98187666D01*
X107292000Y-98321000D01*
X107258666Y-98387666D01*
X107192000Y-98454333D01*
X107092000Y-98487666D01*
X106925333Y-98487666D01*
X107592000Y-97854333D02*
X107625333Y-97821000D01*
X107692000Y-97787666D01*
X107858666Y-97787666D01*
X107925333Y-97821000D01*
X107958666Y-97854333D01*
X107992000Y-97921000D01*
X107992000Y-97987666D01*
X107958666Y-98087666D01*
X107558666Y-98487666D01*
X107992000Y-98487666D01*
D10*
X104259095Y-98555380D02*
X104259095Y-97555380D01*
X104830523Y-98555380D02*
X104401952Y-97983952D01*
X104830523Y-97555380D02*
X104259095Y-98126809D01*
D14*
X106925333Y-110679666D02*
X106925333Y-109979666D01*
X107092000Y-109979666D01*
X107192000Y-110013000D01*
X107258666Y-110079666D01*
X107292000Y-110146333D01*
X107325333Y-110279666D01*
X107325333Y-110379666D01*
X107292000Y-110513000D01*
X107258666Y-110579666D01*
X107192000Y-110646333D01*
X107092000Y-110679666D01*
X106925333Y-110679666D01*
X107558666Y-109979666D02*
X107992000Y-109979666D01*
X107758666Y-110246333D01*
X107858666Y-110246333D01*
X107925333Y-110279666D01*
X107958666Y-110313000D01*
X107992000Y-110379666D01*
X107992000Y-110546333D01*
X107958666Y-110613000D01*
X107925333Y-110646333D01*
X107858666Y-110679666D01*
X107658666Y-110679666D01*
X107592000Y-110646333D01*
X107558666Y-110613000D01*
D10*
X104259095Y-110747380D02*
X104259095Y-109747380D01*
X104830523Y-110747380D02*
X104401952Y-110175952D01*
X104830523Y-109747380D02*
X104259095Y-110318809D01*
D14*
X106925333Y-102551666D02*
X106925333Y-101851666D01*
X107092000Y-101851666D01*
X107192000Y-101885000D01*
X107258666Y-101951666D01*
X107292000Y-102018333D01*
X107325333Y-102151666D01*
X107325333Y-102251666D01*
X107292000Y-102385000D01*
X107258666Y-102451666D01*
X107192000Y-102518333D01*
X107092000Y-102551666D01*
X106925333Y-102551666D01*
X107925333Y-102085000D02*
X107925333Y-102551666D01*
X107758666Y-101818333D02*
X107592000Y-102318333D01*
X108025333Y-102318333D01*
D10*
X104259095Y-102619380D02*
X104259095Y-101619380D01*
X104830523Y-102619380D02*
X104401952Y-102047952D01*
X104830523Y-101619380D02*
X104259095Y-102190809D01*
X122131904Y-108887380D02*
X122131904Y-107887380D01*
X122370000Y-107887380D01*
X122512857Y-107935000D01*
X122608095Y-108030238D01*
X122655714Y-108125476D01*
X122703333Y-108315952D01*
X122703333Y-108458809D01*
X122655714Y-108649285D01*
X122608095Y-108744523D01*
X122512857Y-108839761D01*
X122370000Y-108887380D01*
X122131904Y-108887380D01*
X123608095Y-107887380D02*
X123131904Y-107887380D01*
X123084285Y-108363571D01*
X123131904Y-108315952D01*
X123227142Y-108268333D01*
X123465238Y-108268333D01*
X123560476Y-108315952D01*
X123608095Y-108363571D01*
X123655714Y-108458809D01*
X123655714Y-108696904D01*
X123608095Y-108792142D01*
X123560476Y-108839761D01*
X123465238Y-108887380D01*
X123227142Y-108887380D01*
X123131904Y-108839761D01*
X123084285Y-108792142D01*
X122131904Y-86789380D02*
X122131904Y-85789380D01*
X122370000Y-85789380D01*
X122512857Y-85837000D01*
X122608095Y-85932238D01*
X122655714Y-86027476D01*
X122703333Y-86217952D01*
X122703333Y-86360809D01*
X122655714Y-86551285D01*
X122608095Y-86646523D01*
X122512857Y-86741761D01*
X122370000Y-86789380D01*
X122131904Y-86789380D01*
X123560476Y-85789380D02*
X123370000Y-85789380D01*
X123274761Y-85837000D01*
X123227142Y-85884619D01*
X123131904Y-86027476D01*
X123084285Y-86217952D01*
X123084285Y-86598904D01*
X123131904Y-86694142D01*
X123179523Y-86741761D01*
X123274761Y-86789380D01*
X123465238Y-86789380D01*
X123560476Y-86741761D01*
X123608095Y-86694142D01*
X123655714Y-86598904D01*
X123655714Y-86360809D01*
X123608095Y-86265571D01*
X123560476Y-86217952D01*
X123465238Y-86170333D01*
X123274761Y-86170333D01*
X123179523Y-86217952D01*
X123131904Y-86265571D01*
X123084285Y-86360809D01*
X107675666Y-126868380D02*
X107675666Y-127582666D01*
X107628047Y-127725523D01*
X107532809Y-127820761D01*
X107389952Y-127868380D01*
X107294714Y-127868380D01*
X108675666Y-127868380D02*
X108104238Y-127868380D01*
X108389952Y-127868380D02*
X108389952Y-126868380D01*
X108294714Y-127011238D01*
X108199476Y-127106476D01*
X108104238Y-127154095D01*
X125523666Y-76541380D02*
X125523666Y-77255666D01*
X125476047Y-77398523D01*
X125380809Y-77493761D01*
X125237952Y-77541380D01*
X125142714Y-77541380D01*
X125952238Y-76636619D02*
X125999857Y-76589000D01*
X126095095Y-76541380D01*
X126333190Y-76541380D01*
X126428428Y-76589000D01*
X126476047Y-76636619D01*
X126523666Y-76731857D01*
X126523666Y-76827095D01*
X126476047Y-76969952D01*
X125904619Y-77541380D01*
X126523666Y-77541380D01*
X125269666Y-121499380D02*
X125269666Y-122213666D01*
X125222047Y-122356523D01*
X125126809Y-122451761D01*
X124983952Y-122499380D01*
X124888714Y-122499380D01*
X125650619Y-121499380D02*
X126269666Y-121499380D01*
X125936333Y-121880333D01*
X126079190Y-121880333D01*
X126174428Y-121927952D01*
X126222047Y-121975571D01*
X126269666Y-122070809D01*
X126269666Y-122308904D01*
X126222047Y-122404142D01*
X126174428Y-122451761D01*
X126079190Y-122499380D01*
X125793476Y-122499380D01*
X125698238Y-122451761D01*
X125650619Y-122404142D01*
X120340380Y-118784666D02*
X119864190Y-119118000D01*
X120340380Y-119356095D02*
X119340380Y-119356095D01*
X119340380Y-118975142D01*
X119388000Y-118879904D01*
X119435619Y-118832285D01*
X119530857Y-118784666D01*
X119673714Y-118784666D01*
X119768952Y-118832285D01*
X119816571Y-118879904D01*
X119864190Y-118975142D01*
X119864190Y-119356095D01*
X120340380Y-117832285D02*
X120340380Y-118403714D01*
X120340380Y-118118000D02*
X119340380Y-118118000D01*
X119483238Y-118213238D01*
X119578476Y-118308476D01*
X119626095Y-118403714D01*
X120193761Y-102569333D02*
X120241380Y-102426476D01*
X120241380Y-102188380D01*
X120193761Y-102093142D01*
X120146142Y-102045523D01*
X120050904Y-101997904D01*
X119955666Y-101997904D01*
X119860428Y-102045523D01*
X119812809Y-102093142D01*
X119765190Y-102188380D01*
X119717571Y-102378857D01*
X119669952Y-102474095D01*
X119622333Y-102521714D01*
X119527095Y-102569333D01*
X119431857Y-102569333D01*
X119336619Y-102521714D01*
X119289000Y-102474095D01*
X119241380Y-102378857D01*
X119241380Y-102140761D01*
X119289000Y-101997904D01*
X119241380Y-101664571D02*
X120241380Y-101426476D01*
X119527095Y-101236000D01*
X120241380Y-101045523D01*
X119241380Y-100807428D01*
X120241380Y-99902666D02*
X120241380Y-100474095D01*
X120241380Y-100188380D02*
X119241380Y-100188380D01*
X119384238Y-100283619D01*
X119479476Y-100378857D01*
X119527095Y-100474095D01*
X106747095Y-88908380D02*
X106747095Y-89717904D01*
X106794714Y-89813142D01*
X106842333Y-89860761D01*
X106937571Y-89908380D01*
X107128047Y-89908380D01*
X107223285Y-89860761D01*
X107270904Y-89813142D01*
X107318523Y-89717904D01*
X107318523Y-88908380D01*
X108318523Y-89908380D02*
X107747095Y-89908380D01*
X108032809Y-89908380D02*
X108032809Y-88908380D01*
X107937571Y-89051238D01*
X107842333Y-89146476D01*
X107747095Y-89194095D01*
M02*
