M48
; DRILL file {KiCad (5.1.2)-1} date 5/11/2019 9:05:15 AM
; FORMAT={2:4/ absolute / inch / suppress leading zeros}
; #@! TF.CreationDate,2019-05-11T09:05:15-04:00
; #@! TF.GenerationSoftware,Kicad,Pcbnew,(5.1.2)-1
; #@! TF.FileFunction,Plated,1,2,PTH
FMAT,2
INCH,TZ
T1C0.0315
T2C0.0354
T3C0.0394
T4C0.0433
T5C0.0630
%
G90
G05
T1
X45550Y-31600
X46534Y-31600
X48050Y-46800
X48050Y-49800
X45850Y-34500
X45850Y-37500
T2
X47874Y-44250
X48874Y-44250
X47874Y-35550
X48874Y-35550
X48350Y-38869
X48350Y-39853
X48350Y-40837
T3
X41400Y-32328
X43369Y-32328
X50600Y-31050
X50600Y-32050
X51600Y-31050
X51600Y-32050
X50600Y-48725
X50600Y-49725
X51600Y-48725
X51600Y-49725
T4
X41150Y-39450
X45150Y-39450
X41150Y-44250
X45150Y-44250
X41326Y-36900
X42326Y-36900
X43326Y-36900
X41150Y-42650
X45150Y-42650
X41150Y-41050
X45150Y-41050
T5
X43488Y-47900
X44669Y-49750
X45850Y-47900
T0
M30
