G04 #@! TF.GenerationSoftware,KiCad,Pcbnew,(5.1.2)-1*
G04 #@! TF.CreationDate,2019-05-11T09:03:37-04:00*
G04 #@! TF.ProjectId,PowerSupply,506f7765-7253-4757-9070-6c792e6b6963,1*
G04 #@! TF.SameCoordinates,Original*
G04 #@! TF.FileFunction,Copper,L2,Bot*
G04 #@! TF.FilePolarity,Positive*
%FSLAX46Y46*%
G04 Gerber Fmt 4.6, Leading zero omitted, Abs format (unit mm)*
G04 Created by KiCad (PCBNEW (5.1.2)-1) date 2019-05-11 09:03:37*
%MOMM*%
%LPD*%
G04 APERTURE LIST*
%ADD10R,2.200000X2.200000*%
%ADD11O,2.200000X2.200000*%
%ADD12O,1.600000X1.600000*%
%ADD13C,1.600000*%
%ADD14R,2.000000X2.000000*%
%ADD15C,2.000000*%
%ADD16R,1.600000X1.600000*%
%ADD17C,1.800000*%
%ADD18R,1.800000X1.800000*%
%ADD19R,2.600000X2.600000*%
%ADD20C,2.600000*%
%ADD21R,1.700000X1.700000*%
%ADD22O,1.700000X1.700000*%
%ADD23R,1.900000X1.900000*%
%ADD24C,1.900000*%
%ADD25R,1.905000X2.000000*%
%ADD26O,1.905000X2.000000*%
%ADD27C,0.300000*%
%ADD28C,0.254000*%
G04 APERTURE END LIST*
D10*
X104521000Y-108331000D03*
D11*
X114681000Y-108331000D03*
D12*
X116459000Y-87630000D03*
D13*
X116459000Y-95250000D03*
D14*
X105156000Y-82114000D03*
D15*
X110156000Y-82114000D03*
D16*
X115697000Y-80264000D03*
D13*
X118197000Y-80264000D03*
D10*
X104521000Y-100203000D03*
D11*
X114681000Y-100203000D03*
X114681000Y-112395000D03*
D10*
X104521000Y-112395000D03*
D11*
X114681000Y-104267000D03*
D10*
X104521000Y-104267000D03*
D17*
X124140000Y-112395000D03*
D18*
X121600000Y-112395000D03*
X121600000Y-90297000D03*
D17*
X124140000Y-90297000D03*
D19*
X116459000Y-121666000D03*
D20*
X110459000Y-121666000D03*
X113459000Y-126366000D03*
D21*
X128524000Y-78867000D03*
D22*
X131064000Y-78867000D03*
X128524000Y-81407000D03*
X131064000Y-81407000D03*
X131064000Y-126301000D03*
X128524000Y-126301000D03*
X131064000Y-123761000D03*
D21*
X128524000Y-123761000D03*
D13*
X122047000Y-126492000D03*
D12*
X122047000Y-118872000D03*
D23*
X122809000Y-103726000D03*
D24*
X122809000Y-101226000D03*
X122809000Y-98726000D03*
D25*
X104969000Y-93726000D03*
D26*
X107509000Y-93726000D03*
X110049000Y-93726000D03*
D27*
X131064000Y-126301000D02*
X128524000Y-126301000D01*
X121600000Y-113595000D02*
X121600000Y-112395000D01*
X123297001Y-115292001D02*
X121600000Y-113595000D01*
X123297001Y-121074001D02*
X123297001Y-115292001D01*
X128524000Y-126301000D02*
X123297001Y-121074001D01*
X107509000Y-84761000D02*
X110156000Y-82114000D01*
X107509000Y-93726000D02*
X107509000Y-84761000D01*
X116347000Y-82114000D02*
X118197000Y-80264000D01*
X110156000Y-82114000D02*
X116347000Y-82114000D01*
X119340000Y-81407000D02*
X128524000Y-81407000D01*
X118197000Y-80264000D02*
X119340000Y-81407000D01*
X128524000Y-81407000D02*
X131064000Y-81407000D01*
X114681000Y-102711366D02*
X114681000Y-100203000D01*
X114681000Y-104267000D02*
X114681000Y-102711366D01*
X107509000Y-93773500D02*
X107509000Y-93726000D01*
X112838501Y-99103001D02*
X107509000Y-93773500D01*
X113581001Y-99103001D02*
X112838501Y-99103001D01*
X114681000Y-100203000D02*
X113581001Y-99103001D01*
X121600000Y-111186000D02*
X114681000Y-104267000D01*
X121600000Y-112395000D02*
X121600000Y-111186000D01*
X121600000Y-90297000D02*
X121600000Y-83667000D01*
X121600000Y-83667000D02*
X118197000Y-80264000D01*
X114681000Y-117444000D02*
X114681000Y-112395000D01*
X110459000Y-121666000D02*
X114681000Y-117444000D01*
X106553000Y-104267000D02*
X104521000Y-104267000D01*
X114681000Y-112395000D02*
X106553000Y-104267000D01*
D28*
G36*
X132309001Y-78046021D02*
G01*
X132304706Y-78037986D01*
X132119134Y-77811866D01*
X131893014Y-77626294D01*
X131635034Y-77488401D01*
X131355111Y-77403487D01*
X131136950Y-77382000D01*
X130991050Y-77382000D01*
X130772889Y-77403487D01*
X130492966Y-77488401D01*
X130234986Y-77626294D01*
X130008866Y-77811866D01*
X129984393Y-77841687D01*
X129963502Y-77772820D01*
X129904537Y-77662506D01*
X129825185Y-77565815D01*
X129728494Y-77486463D01*
X129618180Y-77427498D01*
X129498482Y-77391188D01*
X129374000Y-77378928D01*
X127674000Y-77378928D01*
X127549518Y-77391188D01*
X127429820Y-77427498D01*
X127319506Y-77486463D01*
X127222815Y-77565815D01*
X127143463Y-77662506D01*
X127084498Y-77772820D01*
X127048188Y-77892518D01*
X127035928Y-78017000D01*
X127035928Y-79717000D01*
X127048188Y-79841482D01*
X127084498Y-79961180D01*
X127143463Y-80071494D01*
X127222815Y-80168185D01*
X127319506Y-80247537D01*
X127429820Y-80306502D01*
X127510466Y-80330966D01*
X127426412Y-80406731D01*
X127252359Y-80640080D01*
X127127175Y-80902901D01*
X127082524Y-81050110D01*
X127203845Y-81280000D01*
X128397000Y-81280000D01*
X128397000Y-81260000D01*
X128651000Y-81260000D01*
X128651000Y-81280000D01*
X130937000Y-81280000D01*
X130937000Y-81260000D01*
X131191000Y-81260000D01*
X131191000Y-81280000D01*
X131211000Y-81280000D01*
X131211000Y-81534000D01*
X131191000Y-81534000D01*
X131191000Y-82727814D01*
X131420891Y-82848481D01*
X131695252Y-82751157D01*
X131945355Y-82602178D01*
X132161588Y-82407269D01*
X132309000Y-82209637D01*
X132309000Y-83160000D01*
X126778419Y-83160000D01*
X126746000Y-83156807D01*
X126713581Y-83160000D01*
X126616617Y-83169550D01*
X126492207Y-83207290D01*
X126377550Y-83268575D01*
X126277052Y-83351052D01*
X126194575Y-83451550D01*
X126133290Y-83566207D01*
X126095550Y-83690617D01*
X126082807Y-83820000D01*
X126086001Y-83852429D01*
X126086000Y-121506581D01*
X126082807Y-121539000D01*
X126095550Y-121668383D01*
X126133290Y-121792793D01*
X126194575Y-121907450D01*
X126244152Y-121967859D01*
X126277052Y-122007948D01*
X126377550Y-122090425D01*
X126492207Y-122151710D01*
X126616617Y-122189450D01*
X126746000Y-122202193D01*
X126778419Y-122199000D01*
X132309001Y-122199000D01*
X132309001Y-122940021D01*
X132304706Y-122931986D01*
X132119134Y-122705866D01*
X131893014Y-122520294D01*
X131635034Y-122382401D01*
X131355111Y-122297487D01*
X131136950Y-122276000D01*
X130991050Y-122276000D01*
X130772889Y-122297487D01*
X130492966Y-122382401D01*
X130234986Y-122520294D01*
X130008866Y-122705866D01*
X129984393Y-122735687D01*
X129963502Y-122666820D01*
X129904537Y-122556506D01*
X129825185Y-122459815D01*
X129728494Y-122380463D01*
X129618180Y-122321498D01*
X129498482Y-122285188D01*
X129374000Y-122272928D01*
X127674000Y-122272928D01*
X127549518Y-122285188D01*
X127429820Y-122321498D01*
X127319506Y-122380463D01*
X127222815Y-122459815D01*
X127143463Y-122556506D01*
X127084498Y-122666820D01*
X127048188Y-122786518D01*
X127035928Y-122911000D01*
X127035928Y-124611000D01*
X127048188Y-124735482D01*
X127084498Y-124855180D01*
X127143463Y-124965494D01*
X127222815Y-125062185D01*
X127319506Y-125141537D01*
X127429820Y-125200502D01*
X127510466Y-125224966D01*
X127426412Y-125300731D01*
X127252359Y-125534080D01*
X127127175Y-125796901D01*
X127082524Y-125944110D01*
X127203845Y-126174000D01*
X128397000Y-126174000D01*
X128397000Y-126154000D01*
X128651000Y-126154000D01*
X128651000Y-126174000D01*
X130937000Y-126174000D01*
X130937000Y-126154000D01*
X131191000Y-126154000D01*
X131191000Y-126174000D01*
X131211000Y-126174000D01*
X131211000Y-126428000D01*
X131191000Y-126428000D01*
X131191000Y-126448000D01*
X130937000Y-126448000D01*
X130937000Y-126428000D01*
X128651000Y-126428000D01*
X128651000Y-126448000D01*
X128397000Y-126448000D01*
X128397000Y-126428000D01*
X127203845Y-126428000D01*
X127082524Y-126657890D01*
X127127175Y-126805099D01*
X127252359Y-127067920D01*
X127426412Y-127301269D01*
X127642645Y-127496178D01*
X127892748Y-127645157D01*
X128151658Y-127737000D01*
X122766657Y-127737000D01*
X122961759Y-127606637D01*
X123161637Y-127406759D01*
X123318680Y-127171727D01*
X123426853Y-126910574D01*
X123482000Y-126633335D01*
X123482000Y-126350665D01*
X123426853Y-126073426D01*
X123318680Y-125812273D01*
X123161637Y-125577241D01*
X122961759Y-125377363D01*
X122726727Y-125220320D01*
X122465574Y-125112147D01*
X122188335Y-125057000D01*
X121905665Y-125057000D01*
X121628426Y-125112147D01*
X121367273Y-125220320D01*
X121132241Y-125377363D01*
X120932363Y-125577241D01*
X120775320Y-125812273D01*
X120667147Y-126073426D01*
X120612000Y-126350665D01*
X120612000Y-126633335D01*
X120667147Y-126910574D01*
X120775320Y-127171727D01*
X120932363Y-127406759D01*
X121132241Y-127606637D01*
X121327343Y-127737000D01*
X114824504Y-127737000D01*
X114962013Y-127599491D01*
X115173775Y-127282566D01*
X115319639Y-126930419D01*
X115394000Y-126556581D01*
X115394000Y-126175419D01*
X115319639Y-125801581D01*
X115173775Y-125449434D01*
X114962013Y-125132509D01*
X114692491Y-124862987D01*
X114375566Y-124651225D01*
X114023419Y-124505361D01*
X113649581Y-124431000D01*
X113268419Y-124431000D01*
X112894581Y-124505361D01*
X112542434Y-124651225D01*
X112225509Y-124862987D01*
X111955987Y-125132509D01*
X111744225Y-125449434D01*
X111598361Y-125801581D01*
X111524000Y-126175419D01*
X111524000Y-126556581D01*
X111598361Y-126930419D01*
X111744225Y-127282566D01*
X111955987Y-127599491D01*
X112093496Y-127737000D01*
X102641000Y-127737000D01*
X102641000Y-111295000D01*
X102782928Y-111295000D01*
X102782928Y-113495000D01*
X102795188Y-113619482D01*
X102831498Y-113739180D01*
X102890463Y-113849494D01*
X102969815Y-113946185D01*
X103066506Y-114025537D01*
X103176820Y-114084502D01*
X103296518Y-114120812D01*
X103421000Y-114133072D01*
X105621000Y-114133072D01*
X105745482Y-114120812D01*
X105865180Y-114084502D01*
X105975494Y-114025537D01*
X106072185Y-113946185D01*
X106151537Y-113849494D01*
X106210502Y-113739180D01*
X106246812Y-113619482D01*
X106259072Y-113495000D01*
X106259072Y-111295000D01*
X106246812Y-111170518D01*
X106210502Y-111050820D01*
X106151537Y-110940506D01*
X106072185Y-110843815D01*
X105975494Y-110764463D01*
X105865180Y-110705498D01*
X105745482Y-110669188D01*
X105621000Y-110656928D01*
X103421000Y-110656928D01*
X103296518Y-110669188D01*
X103176820Y-110705498D01*
X103066506Y-110764463D01*
X102969815Y-110843815D01*
X102890463Y-110940506D01*
X102831498Y-111050820D01*
X102795188Y-111170518D01*
X102782928Y-111295000D01*
X102641000Y-111295000D01*
X102641000Y-107231000D01*
X102782928Y-107231000D01*
X102782928Y-109431000D01*
X102795188Y-109555482D01*
X102831498Y-109675180D01*
X102890463Y-109785494D01*
X102969815Y-109882185D01*
X103066506Y-109961537D01*
X103176820Y-110020502D01*
X103296518Y-110056812D01*
X103421000Y-110069072D01*
X105621000Y-110069072D01*
X105745482Y-110056812D01*
X105865180Y-110020502D01*
X105975494Y-109961537D01*
X106072185Y-109882185D01*
X106151537Y-109785494D01*
X106210502Y-109675180D01*
X106246812Y-109555482D01*
X106259072Y-109431000D01*
X106259072Y-107231000D01*
X106246812Y-107106518D01*
X106210502Y-106986820D01*
X106151537Y-106876506D01*
X106072185Y-106779815D01*
X105975494Y-106700463D01*
X105865180Y-106641498D01*
X105745482Y-106605188D01*
X105621000Y-106592928D01*
X103421000Y-106592928D01*
X103296518Y-106605188D01*
X103176820Y-106641498D01*
X103066506Y-106700463D01*
X102969815Y-106779815D01*
X102890463Y-106876506D01*
X102831498Y-106986820D01*
X102795188Y-107106518D01*
X102782928Y-107231000D01*
X102641000Y-107231000D01*
X102641000Y-103167000D01*
X102782928Y-103167000D01*
X102782928Y-105367000D01*
X102795188Y-105491482D01*
X102831498Y-105611180D01*
X102890463Y-105721494D01*
X102969815Y-105818185D01*
X103066506Y-105897537D01*
X103176820Y-105956502D01*
X103296518Y-105992812D01*
X103421000Y-106005072D01*
X105621000Y-106005072D01*
X105745482Y-105992812D01*
X105865180Y-105956502D01*
X105975494Y-105897537D01*
X106072185Y-105818185D01*
X106151537Y-105721494D01*
X106210502Y-105611180D01*
X106246812Y-105491482D01*
X106259072Y-105367000D01*
X106259072Y-105083229D01*
X113031530Y-111855687D01*
X112971105Y-112054881D01*
X112937606Y-112395000D01*
X112971105Y-112735119D01*
X113070314Y-113062168D01*
X113231421Y-113363578D01*
X113448234Y-113627766D01*
X113712422Y-113844579D01*
X113896001Y-113942704D01*
X113896000Y-117118843D01*
X111154985Y-119859858D01*
X111023419Y-119805361D01*
X110649581Y-119731000D01*
X110268419Y-119731000D01*
X109894581Y-119805361D01*
X109542434Y-119951225D01*
X109225509Y-120162987D01*
X108955987Y-120432509D01*
X108744225Y-120749434D01*
X108598361Y-121101581D01*
X108524000Y-121475419D01*
X108524000Y-121856581D01*
X108598361Y-122230419D01*
X108744225Y-122582566D01*
X108955987Y-122899491D01*
X109225509Y-123169013D01*
X109542434Y-123380775D01*
X109894581Y-123526639D01*
X110268419Y-123601000D01*
X110649581Y-123601000D01*
X111023419Y-123526639D01*
X111375566Y-123380775D01*
X111692491Y-123169013D01*
X111962013Y-122899491D01*
X112173775Y-122582566D01*
X112319639Y-122230419D01*
X112394000Y-121856581D01*
X112394000Y-121475419D01*
X112319639Y-121101581D01*
X112265142Y-120970015D01*
X112869157Y-120366000D01*
X114520928Y-120366000D01*
X114520928Y-122966000D01*
X114533188Y-123090482D01*
X114569498Y-123210180D01*
X114628463Y-123320494D01*
X114707815Y-123417185D01*
X114804506Y-123496537D01*
X114914820Y-123555502D01*
X115034518Y-123591812D01*
X115159000Y-123604072D01*
X117759000Y-123604072D01*
X117883482Y-123591812D01*
X118003180Y-123555502D01*
X118113494Y-123496537D01*
X118210185Y-123417185D01*
X118289537Y-123320494D01*
X118348502Y-123210180D01*
X118384812Y-123090482D01*
X118397072Y-122966000D01*
X118397072Y-120366000D01*
X118384812Y-120241518D01*
X118348502Y-120121820D01*
X118289537Y-120011506D01*
X118210185Y-119914815D01*
X118113494Y-119835463D01*
X118003180Y-119776498D01*
X117883482Y-119740188D01*
X117759000Y-119727928D01*
X115159000Y-119727928D01*
X115034518Y-119740188D01*
X114914820Y-119776498D01*
X114804506Y-119835463D01*
X114707815Y-119914815D01*
X114628463Y-120011506D01*
X114569498Y-120121820D01*
X114533188Y-120241518D01*
X114520928Y-120366000D01*
X112869157Y-120366000D01*
X114363157Y-118872000D01*
X120605057Y-118872000D01*
X120632764Y-119153309D01*
X120714818Y-119423808D01*
X120848068Y-119673101D01*
X121027392Y-119891608D01*
X121245899Y-120070932D01*
X121495192Y-120204182D01*
X121765691Y-120286236D01*
X121976508Y-120307000D01*
X122117492Y-120307000D01*
X122328309Y-120286236D01*
X122598808Y-120204182D01*
X122848101Y-120070932D01*
X123066608Y-119891608D01*
X123245932Y-119673101D01*
X123379182Y-119423808D01*
X123461236Y-119153309D01*
X123488943Y-118872000D01*
X123461236Y-118590691D01*
X123379182Y-118320192D01*
X123245932Y-118070899D01*
X123066608Y-117852392D01*
X122848101Y-117673068D01*
X122598808Y-117539818D01*
X122328309Y-117457764D01*
X122117492Y-117437000D01*
X121976508Y-117437000D01*
X121765691Y-117457764D01*
X121495192Y-117539818D01*
X121245899Y-117673068D01*
X121027392Y-117852392D01*
X120848068Y-118070899D01*
X120714818Y-118320192D01*
X120632764Y-118590691D01*
X120605057Y-118872000D01*
X114363157Y-118872000D01*
X115208811Y-118026346D01*
X115238764Y-118001764D01*
X115336862Y-117882233D01*
X115409754Y-117745860D01*
X115409754Y-117745859D01*
X115454642Y-117597887D01*
X115462020Y-117522974D01*
X115466000Y-117482561D01*
X115466000Y-117482556D01*
X115469797Y-117444000D01*
X115466000Y-117405444D01*
X115466000Y-113942703D01*
X115649578Y-113844579D01*
X115913766Y-113627766D01*
X116130579Y-113363578D01*
X116167234Y-113295000D01*
X120061928Y-113295000D01*
X120074188Y-113419482D01*
X120110498Y-113539180D01*
X120169463Y-113649494D01*
X120248815Y-113746185D01*
X120345506Y-113825537D01*
X120455820Y-113884502D01*
X120575518Y-113920812D01*
X120700000Y-113933072D01*
X121314250Y-113930000D01*
X121473000Y-113771250D01*
X121473000Y-112522000D01*
X120223750Y-112522000D01*
X120065000Y-112680750D01*
X120061928Y-113295000D01*
X116167234Y-113295000D01*
X116291686Y-113062168D01*
X116390895Y-112735119D01*
X116424394Y-112395000D01*
X116390895Y-112054881D01*
X116291686Y-111727832D01*
X116167235Y-111495000D01*
X120061928Y-111495000D01*
X120065000Y-112109250D01*
X120223750Y-112268000D01*
X121473000Y-112268000D01*
X121473000Y-111018750D01*
X121727000Y-111018750D01*
X121727000Y-112268000D01*
X121747000Y-112268000D01*
X121747000Y-112522000D01*
X121727000Y-112522000D01*
X121727000Y-113771250D01*
X121885750Y-113930000D01*
X122500000Y-113933072D01*
X122624482Y-113920812D01*
X122744180Y-113884502D01*
X122854494Y-113825537D01*
X122951185Y-113746185D01*
X123030537Y-113649494D01*
X123089502Y-113539180D01*
X123095056Y-113520873D01*
X123161495Y-113587312D01*
X123412905Y-113755299D01*
X123692257Y-113871011D01*
X123988816Y-113930000D01*
X124291184Y-113930000D01*
X124587743Y-113871011D01*
X124867095Y-113755299D01*
X125118505Y-113587312D01*
X125332312Y-113373505D01*
X125500299Y-113122095D01*
X125616011Y-112842743D01*
X125675000Y-112546184D01*
X125675000Y-112243816D01*
X125616011Y-111947257D01*
X125500299Y-111667905D01*
X125332312Y-111416495D01*
X125118505Y-111202688D01*
X124867095Y-111034701D01*
X124587743Y-110918989D01*
X124291184Y-110860000D01*
X123988816Y-110860000D01*
X123692257Y-110918989D01*
X123412905Y-111034701D01*
X123161495Y-111202688D01*
X123095056Y-111269127D01*
X123089502Y-111250820D01*
X123030537Y-111140506D01*
X122951185Y-111043815D01*
X122854494Y-110964463D01*
X122744180Y-110905498D01*
X122624482Y-110869188D01*
X122500000Y-110856928D01*
X121885750Y-110860000D01*
X121727000Y-111018750D01*
X121473000Y-111018750D01*
X121314250Y-110860000D01*
X120700000Y-110856928D01*
X120575518Y-110869188D01*
X120455820Y-110905498D01*
X120345506Y-110964463D01*
X120248815Y-111043815D01*
X120169463Y-111140506D01*
X120110498Y-111250820D01*
X120074188Y-111370518D01*
X120061928Y-111495000D01*
X116167235Y-111495000D01*
X116130579Y-111426422D01*
X115913766Y-111162234D01*
X115649578Y-110945421D01*
X115348168Y-110784314D01*
X115021119Y-110685105D01*
X114766225Y-110660000D01*
X114595775Y-110660000D01*
X114340881Y-110685105D01*
X114141687Y-110745530D01*
X111727157Y-108331000D01*
X112937606Y-108331000D01*
X112971105Y-108671119D01*
X113070314Y-108998168D01*
X113231421Y-109299578D01*
X113448234Y-109563766D01*
X113712422Y-109780579D01*
X114013832Y-109941686D01*
X114340881Y-110040895D01*
X114595775Y-110066000D01*
X114766225Y-110066000D01*
X115021119Y-110040895D01*
X115348168Y-109941686D01*
X115649578Y-109780579D01*
X115913766Y-109563766D01*
X116130579Y-109299578D01*
X116291686Y-108998168D01*
X116390895Y-108671119D01*
X116424394Y-108331000D01*
X116390895Y-107990881D01*
X116291686Y-107663832D01*
X116130579Y-107362422D01*
X115913766Y-107098234D01*
X115649578Y-106881421D01*
X115348168Y-106720314D01*
X115021119Y-106621105D01*
X114766225Y-106596000D01*
X114595775Y-106596000D01*
X114340881Y-106621105D01*
X114013832Y-106720314D01*
X113712422Y-106881421D01*
X113448234Y-107098234D01*
X113231421Y-107362422D01*
X113070314Y-107663832D01*
X112971105Y-107990881D01*
X112937606Y-108331000D01*
X111727157Y-108331000D01*
X108059279Y-104663122D01*
X112991825Y-104663122D01*
X113056425Y-104876094D01*
X113206469Y-105181329D01*
X113413178Y-105451427D01*
X113668609Y-105676008D01*
X113962946Y-105846442D01*
X114284877Y-105956179D01*
X114554000Y-105838600D01*
X114554000Y-104394000D01*
X114808000Y-104394000D01*
X114808000Y-105838600D01*
X115077123Y-105956179D01*
X115399054Y-105846442D01*
X115693391Y-105676008D01*
X115948822Y-105451427D01*
X116155531Y-105181329D01*
X116305575Y-104876094D01*
X116370175Y-104663122D01*
X116252125Y-104394000D01*
X114808000Y-104394000D01*
X114554000Y-104394000D01*
X113109875Y-104394000D01*
X112991825Y-104663122D01*
X108059279Y-104663122D01*
X107267035Y-103870878D01*
X112991825Y-103870878D01*
X113109875Y-104140000D01*
X114554000Y-104140000D01*
X114554000Y-102695400D01*
X114808000Y-102695400D01*
X114808000Y-104140000D01*
X116252125Y-104140000D01*
X116370175Y-103870878D01*
X116305575Y-103657906D01*
X116155531Y-103352671D01*
X115948822Y-103082573D01*
X115693391Y-102857992D01*
X115551793Y-102776000D01*
X121220928Y-102776000D01*
X121220928Y-104676000D01*
X121233188Y-104800482D01*
X121269498Y-104920180D01*
X121328463Y-105030494D01*
X121407815Y-105127185D01*
X121504506Y-105206537D01*
X121614820Y-105265502D01*
X121734518Y-105301812D01*
X121859000Y-105314072D01*
X123759000Y-105314072D01*
X123883482Y-105301812D01*
X124003180Y-105265502D01*
X124113494Y-105206537D01*
X124210185Y-105127185D01*
X124289537Y-105030494D01*
X124348502Y-104920180D01*
X124384812Y-104800482D01*
X124397072Y-104676000D01*
X124397072Y-102776000D01*
X124384812Y-102651518D01*
X124348502Y-102531820D01*
X124289537Y-102421506D01*
X124210185Y-102324815D01*
X124113494Y-102245463D01*
X124054979Y-102214186D01*
X124213609Y-101976779D01*
X124333089Y-101688327D01*
X124394000Y-101382109D01*
X124394000Y-101069891D01*
X124333089Y-100763673D01*
X124213609Y-100475221D01*
X124040150Y-100215621D01*
X123819379Y-99994850D01*
X123791168Y-99976000D01*
X123819379Y-99957150D01*
X124040150Y-99736379D01*
X124213609Y-99476779D01*
X124333089Y-99188327D01*
X124394000Y-98882109D01*
X124394000Y-98569891D01*
X124333089Y-98263673D01*
X124213609Y-97975221D01*
X124040150Y-97715621D01*
X123819379Y-97494850D01*
X123559779Y-97321391D01*
X123271327Y-97201911D01*
X122965109Y-97141000D01*
X122652891Y-97141000D01*
X122346673Y-97201911D01*
X122058221Y-97321391D01*
X121798621Y-97494850D01*
X121577850Y-97715621D01*
X121404391Y-97975221D01*
X121284911Y-98263673D01*
X121224000Y-98569891D01*
X121224000Y-98882109D01*
X121284911Y-99188327D01*
X121404391Y-99476779D01*
X121577850Y-99736379D01*
X121798621Y-99957150D01*
X121826832Y-99976000D01*
X121798621Y-99994850D01*
X121577850Y-100215621D01*
X121404391Y-100475221D01*
X121284911Y-100763673D01*
X121224000Y-101069891D01*
X121224000Y-101382109D01*
X121284911Y-101688327D01*
X121404391Y-101976779D01*
X121563021Y-102214186D01*
X121504506Y-102245463D01*
X121407815Y-102324815D01*
X121328463Y-102421506D01*
X121269498Y-102531820D01*
X121233188Y-102651518D01*
X121220928Y-102776000D01*
X115551793Y-102776000D01*
X115399054Y-102687558D01*
X115077123Y-102577821D01*
X114808000Y-102695400D01*
X114554000Y-102695400D01*
X114284877Y-102577821D01*
X113962946Y-102687558D01*
X113668609Y-102857992D01*
X113413178Y-103082573D01*
X113206469Y-103352671D01*
X113056425Y-103657906D01*
X112991825Y-103870878D01*
X107267035Y-103870878D01*
X107135347Y-103739190D01*
X107110764Y-103709236D01*
X106991233Y-103611138D01*
X106854860Y-103538246D01*
X106706887Y-103493359D01*
X106591561Y-103482000D01*
X106591553Y-103482000D01*
X106553000Y-103478203D01*
X106514447Y-103482000D01*
X106259072Y-103482000D01*
X106259072Y-103167000D01*
X106246812Y-103042518D01*
X106210502Y-102922820D01*
X106151537Y-102812506D01*
X106072185Y-102715815D01*
X105975494Y-102636463D01*
X105865180Y-102577498D01*
X105745482Y-102541188D01*
X105621000Y-102528928D01*
X103421000Y-102528928D01*
X103296518Y-102541188D01*
X103176820Y-102577498D01*
X103066506Y-102636463D01*
X102969815Y-102715815D01*
X102890463Y-102812506D01*
X102831498Y-102922820D01*
X102795188Y-103042518D01*
X102782928Y-103167000D01*
X102641000Y-103167000D01*
X102641000Y-99103000D01*
X102782928Y-99103000D01*
X102782928Y-101303000D01*
X102795188Y-101427482D01*
X102831498Y-101547180D01*
X102890463Y-101657494D01*
X102969815Y-101754185D01*
X103066506Y-101833537D01*
X103176820Y-101892502D01*
X103296518Y-101928812D01*
X103421000Y-101941072D01*
X105621000Y-101941072D01*
X105745482Y-101928812D01*
X105865180Y-101892502D01*
X105975494Y-101833537D01*
X106072185Y-101754185D01*
X106151537Y-101657494D01*
X106210502Y-101547180D01*
X106246812Y-101427482D01*
X106259072Y-101303000D01*
X106259072Y-100599122D01*
X112991825Y-100599122D01*
X113056425Y-100812094D01*
X113206469Y-101117329D01*
X113413178Y-101387427D01*
X113668609Y-101612008D01*
X113962946Y-101782442D01*
X114284877Y-101892179D01*
X114554000Y-101774600D01*
X114554000Y-100330000D01*
X114808000Y-100330000D01*
X114808000Y-101774600D01*
X115077123Y-101892179D01*
X115399054Y-101782442D01*
X115693391Y-101612008D01*
X115948822Y-101387427D01*
X116155531Y-101117329D01*
X116305575Y-100812094D01*
X116370175Y-100599122D01*
X116252125Y-100330000D01*
X114808000Y-100330000D01*
X114554000Y-100330000D01*
X113109875Y-100330000D01*
X112991825Y-100599122D01*
X106259072Y-100599122D01*
X106259072Y-99806878D01*
X112991825Y-99806878D01*
X113109875Y-100076000D01*
X114554000Y-100076000D01*
X114554000Y-98631400D01*
X114808000Y-98631400D01*
X114808000Y-100076000D01*
X116252125Y-100076000D01*
X116370175Y-99806878D01*
X116305575Y-99593906D01*
X116155531Y-99288671D01*
X115948822Y-99018573D01*
X115693391Y-98793992D01*
X115399054Y-98623558D01*
X115077123Y-98513821D01*
X114808000Y-98631400D01*
X114554000Y-98631400D01*
X114284877Y-98513821D01*
X113962946Y-98623558D01*
X113668609Y-98793992D01*
X113413178Y-99018573D01*
X113206469Y-99288671D01*
X113056425Y-99593906D01*
X112991825Y-99806878D01*
X106259072Y-99806878D01*
X106259072Y-99103000D01*
X106246812Y-98978518D01*
X106210502Y-98858820D01*
X106151537Y-98748506D01*
X106072185Y-98651815D01*
X105975494Y-98572463D01*
X105865180Y-98513498D01*
X105745482Y-98477188D01*
X105621000Y-98464928D01*
X103421000Y-98464928D01*
X103296518Y-98477188D01*
X103176820Y-98513498D01*
X103066506Y-98572463D01*
X102969815Y-98651815D01*
X102890463Y-98748506D01*
X102831498Y-98858820D01*
X102795188Y-98978518D01*
X102782928Y-99103000D01*
X102641000Y-99103000D01*
X102641000Y-92726000D01*
X103378428Y-92726000D01*
X103378428Y-94726000D01*
X103390688Y-94850482D01*
X103426998Y-94970180D01*
X103485963Y-95080494D01*
X103565315Y-95177185D01*
X103662006Y-95256537D01*
X103772320Y-95315502D01*
X103892018Y-95351812D01*
X104016500Y-95364072D01*
X105921500Y-95364072D01*
X106045982Y-95351812D01*
X106165680Y-95315502D01*
X106275994Y-95256537D01*
X106372685Y-95177185D01*
X106452037Y-95080494D01*
X106501059Y-94988781D01*
X106642077Y-95101969D01*
X106917906Y-95245571D01*
X107136020Y-95316563D01*
X107382000Y-95196594D01*
X107382000Y-93853000D01*
X107362000Y-93853000D01*
X107362000Y-93599000D01*
X107382000Y-93599000D01*
X107382000Y-92255406D01*
X107636000Y-92255406D01*
X107636000Y-93599000D01*
X107656000Y-93599000D01*
X107656000Y-93853000D01*
X107636000Y-93853000D01*
X107636000Y-95196594D01*
X107881980Y-95316563D01*
X108100094Y-95245571D01*
X108375923Y-95101969D01*
X108618437Y-94907315D01*
X108773837Y-94722101D01*
X108921037Y-94901463D01*
X109162766Y-95099845D01*
X109438552Y-95247255D01*
X109737797Y-95338030D01*
X110049000Y-95368681D01*
X110360204Y-95338030D01*
X110659449Y-95247255D01*
X110918733Y-95108665D01*
X115024000Y-95108665D01*
X115024000Y-95391335D01*
X115079147Y-95668574D01*
X115187320Y-95929727D01*
X115344363Y-96164759D01*
X115544241Y-96364637D01*
X115779273Y-96521680D01*
X116040426Y-96629853D01*
X116317665Y-96685000D01*
X116600335Y-96685000D01*
X116877574Y-96629853D01*
X117138727Y-96521680D01*
X117373759Y-96364637D01*
X117573637Y-96164759D01*
X117730680Y-95929727D01*
X117838853Y-95668574D01*
X117894000Y-95391335D01*
X117894000Y-95108665D01*
X117838853Y-94831426D01*
X117730680Y-94570273D01*
X117573637Y-94335241D01*
X117373759Y-94135363D01*
X117138727Y-93978320D01*
X116877574Y-93870147D01*
X116600335Y-93815000D01*
X116317665Y-93815000D01*
X116040426Y-93870147D01*
X115779273Y-93978320D01*
X115544241Y-94135363D01*
X115344363Y-94335241D01*
X115187320Y-94570273D01*
X115079147Y-94831426D01*
X115024000Y-95108665D01*
X110918733Y-95108665D01*
X110935235Y-95099845D01*
X111176963Y-94901463D01*
X111375345Y-94659734D01*
X111522755Y-94383948D01*
X111613530Y-94084703D01*
X111636500Y-93851485D01*
X111636500Y-93600514D01*
X111613530Y-93367296D01*
X111522755Y-93068051D01*
X111375345Y-92792265D01*
X111176963Y-92550537D01*
X110935234Y-92352155D01*
X110659448Y-92204745D01*
X110360203Y-92113970D01*
X110049000Y-92083319D01*
X109737796Y-92113970D01*
X109438551Y-92204745D01*
X109162765Y-92352155D01*
X108921037Y-92550537D01*
X108773838Y-92729900D01*
X108618437Y-92544685D01*
X108375923Y-92350031D01*
X108100094Y-92206429D01*
X107881980Y-92135437D01*
X107636000Y-92255406D01*
X107382000Y-92255406D01*
X107136020Y-92135437D01*
X106917906Y-92206429D01*
X106642077Y-92350031D01*
X106501059Y-92463219D01*
X106452037Y-92371506D01*
X106372685Y-92274815D01*
X106275994Y-92195463D01*
X106165680Y-92136498D01*
X106045982Y-92100188D01*
X105921500Y-92087928D01*
X104016500Y-92087928D01*
X103892018Y-92100188D01*
X103772320Y-92136498D01*
X103662006Y-92195463D01*
X103565315Y-92274815D01*
X103485963Y-92371506D01*
X103426998Y-92481820D01*
X103390688Y-92601518D01*
X103378428Y-92726000D01*
X102641000Y-92726000D01*
X102641000Y-91197000D01*
X120061928Y-91197000D01*
X120074188Y-91321482D01*
X120110498Y-91441180D01*
X120169463Y-91551494D01*
X120248815Y-91648185D01*
X120345506Y-91727537D01*
X120455820Y-91786502D01*
X120575518Y-91822812D01*
X120700000Y-91835072D01*
X121314250Y-91832000D01*
X121473000Y-91673250D01*
X121473000Y-90424000D01*
X120223750Y-90424000D01*
X120065000Y-90582750D01*
X120061928Y-91197000D01*
X102641000Y-91197000D01*
X102641000Y-89397000D01*
X120061928Y-89397000D01*
X120065000Y-90011250D01*
X120223750Y-90170000D01*
X121473000Y-90170000D01*
X121473000Y-88920750D01*
X121727000Y-88920750D01*
X121727000Y-90170000D01*
X121747000Y-90170000D01*
X121747000Y-90424000D01*
X121727000Y-90424000D01*
X121727000Y-91673250D01*
X121885750Y-91832000D01*
X122500000Y-91835072D01*
X122624482Y-91822812D01*
X122744180Y-91786502D01*
X122854494Y-91727537D01*
X122951185Y-91648185D01*
X123030537Y-91551494D01*
X123089502Y-91441180D01*
X123095056Y-91422873D01*
X123161495Y-91489312D01*
X123412905Y-91657299D01*
X123692257Y-91773011D01*
X123988816Y-91832000D01*
X124291184Y-91832000D01*
X124587743Y-91773011D01*
X124867095Y-91657299D01*
X125118505Y-91489312D01*
X125332312Y-91275505D01*
X125500299Y-91024095D01*
X125616011Y-90744743D01*
X125675000Y-90448184D01*
X125675000Y-90145816D01*
X125616011Y-89849257D01*
X125500299Y-89569905D01*
X125332312Y-89318495D01*
X125118505Y-89104688D01*
X124867095Y-88936701D01*
X124587743Y-88820989D01*
X124291184Y-88762000D01*
X123988816Y-88762000D01*
X123692257Y-88820989D01*
X123412905Y-88936701D01*
X123161495Y-89104688D01*
X123095056Y-89171127D01*
X123089502Y-89152820D01*
X123030537Y-89042506D01*
X122951185Y-88945815D01*
X122854494Y-88866463D01*
X122744180Y-88807498D01*
X122624482Y-88771188D01*
X122500000Y-88758928D01*
X121885750Y-88762000D01*
X121727000Y-88920750D01*
X121473000Y-88920750D01*
X121314250Y-88762000D01*
X120700000Y-88758928D01*
X120575518Y-88771188D01*
X120455820Y-88807498D01*
X120345506Y-88866463D01*
X120248815Y-88945815D01*
X120169463Y-89042506D01*
X120110498Y-89152820D01*
X120074188Y-89272518D01*
X120061928Y-89397000D01*
X102641000Y-89397000D01*
X102641000Y-87630000D01*
X115017057Y-87630000D01*
X115044764Y-87911309D01*
X115126818Y-88181808D01*
X115260068Y-88431101D01*
X115439392Y-88649608D01*
X115657899Y-88828932D01*
X115907192Y-88962182D01*
X116177691Y-89044236D01*
X116388508Y-89065000D01*
X116529492Y-89065000D01*
X116740309Y-89044236D01*
X117010808Y-88962182D01*
X117260101Y-88828932D01*
X117478608Y-88649608D01*
X117657932Y-88431101D01*
X117791182Y-88181808D01*
X117873236Y-87911309D01*
X117900943Y-87630000D01*
X117873236Y-87348691D01*
X117791182Y-87078192D01*
X117657932Y-86828899D01*
X117478608Y-86610392D01*
X117260101Y-86431068D01*
X117010808Y-86297818D01*
X116740309Y-86215764D01*
X116529492Y-86195000D01*
X116388508Y-86195000D01*
X116177691Y-86215764D01*
X115907192Y-86297818D01*
X115657899Y-86431068D01*
X115439392Y-86610392D01*
X115260068Y-86828899D01*
X115126818Y-87078192D01*
X115044764Y-87348691D01*
X115017057Y-87630000D01*
X102641000Y-87630000D01*
X102641000Y-81114000D01*
X103517928Y-81114000D01*
X103517928Y-83114000D01*
X103530188Y-83238482D01*
X103566498Y-83358180D01*
X103625463Y-83468494D01*
X103704815Y-83565185D01*
X103801506Y-83644537D01*
X103911820Y-83703502D01*
X104031518Y-83739812D01*
X104156000Y-83752072D01*
X106156000Y-83752072D01*
X106280482Y-83739812D01*
X106400180Y-83703502D01*
X106510494Y-83644537D01*
X106607185Y-83565185D01*
X106686537Y-83468494D01*
X106745502Y-83358180D01*
X106778496Y-83249413D01*
X109200192Y-83249413D01*
X109295956Y-83513814D01*
X109585571Y-83654704D01*
X109897108Y-83736384D01*
X110218595Y-83755718D01*
X110537675Y-83711961D01*
X110842088Y-83606795D01*
X111016044Y-83513814D01*
X111111808Y-83249413D01*
X110156000Y-82293605D01*
X109200192Y-83249413D01*
X106778496Y-83249413D01*
X106781812Y-83238482D01*
X106794072Y-83114000D01*
X106794072Y-82176595D01*
X108514282Y-82176595D01*
X108558039Y-82495675D01*
X108663205Y-82800088D01*
X108756186Y-82974044D01*
X109020587Y-83069808D01*
X109976395Y-82114000D01*
X110335605Y-82114000D01*
X111291413Y-83069808D01*
X111555814Y-82974044D01*
X111696704Y-82684429D01*
X111778384Y-82372892D01*
X111797718Y-82051405D01*
X111758290Y-81763890D01*
X127082524Y-81763890D01*
X127127175Y-81911099D01*
X127252359Y-82173920D01*
X127426412Y-82407269D01*
X127642645Y-82602178D01*
X127892748Y-82751157D01*
X128167109Y-82848481D01*
X128397000Y-82727814D01*
X128397000Y-81534000D01*
X128651000Y-81534000D01*
X128651000Y-82727814D01*
X128880891Y-82848481D01*
X129155252Y-82751157D01*
X129405355Y-82602178D01*
X129621588Y-82407269D01*
X129794000Y-82176120D01*
X129966412Y-82407269D01*
X130182645Y-82602178D01*
X130432748Y-82751157D01*
X130707109Y-82848481D01*
X130937000Y-82727814D01*
X130937000Y-81534000D01*
X128651000Y-81534000D01*
X128397000Y-81534000D01*
X127203845Y-81534000D01*
X127082524Y-81763890D01*
X111758290Y-81763890D01*
X111753961Y-81732325D01*
X111648795Y-81427912D01*
X111555814Y-81253956D01*
X111291413Y-81158192D01*
X110335605Y-82114000D01*
X109976395Y-82114000D01*
X109020587Y-81158192D01*
X108756186Y-81253956D01*
X108615296Y-81543571D01*
X108533616Y-81855108D01*
X108514282Y-82176595D01*
X106794072Y-82176595D01*
X106794072Y-81114000D01*
X106781812Y-80989518D01*
X106778497Y-80978587D01*
X109200192Y-80978587D01*
X110156000Y-81934395D01*
X111111808Y-80978587D01*
X111016044Y-80714186D01*
X110726429Y-80573296D01*
X110414892Y-80491616D01*
X110093405Y-80472282D01*
X109774325Y-80516039D01*
X109469912Y-80621205D01*
X109295956Y-80714186D01*
X109200192Y-80978587D01*
X106778497Y-80978587D01*
X106745502Y-80869820D01*
X106686537Y-80759506D01*
X106607185Y-80662815D01*
X106510494Y-80583463D01*
X106400180Y-80524498D01*
X106280482Y-80488188D01*
X106156000Y-80475928D01*
X104156000Y-80475928D01*
X104031518Y-80488188D01*
X103911820Y-80524498D01*
X103801506Y-80583463D01*
X103704815Y-80662815D01*
X103625463Y-80759506D01*
X103566498Y-80869820D01*
X103530188Y-80989518D01*
X103517928Y-81114000D01*
X102641000Y-81114000D01*
X102641000Y-79464000D01*
X114258928Y-79464000D01*
X114258928Y-81064000D01*
X114271188Y-81188482D01*
X114307498Y-81308180D01*
X114366463Y-81418494D01*
X114445815Y-81515185D01*
X114542506Y-81594537D01*
X114652820Y-81653502D01*
X114772518Y-81689812D01*
X114897000Y-81702072D01*
X116497000Y-81702072D01*
X116621482Y-81689812D01*
X116741180Y-81653502D01*
X116851494Y-81594537D01*
X116948185Y-81515185D01*
X117027537Y-81418494D01*
X117086502Y-81308180D01*
X117102117Y-81256702D01*
X117383903Y-81256702D01*
X117455486Y-81500671D01*
X117710996Y-81621571D01*
X117985184Y-81690300D01*
X118267512Y-81704217D01*
X118547130Y-81662787D01*
X118813292Y-81567603D01*
X118938514Y-81500671D01*
X119010097Y-81256702D01*
X118197000Y-80443605D01*
X117383903Y-81256702D01*
X117102117Y-81256702D01*
X117122812Y-81188482D01*
X117135072Y-81064000D01*
X117135072Y-81056785D01*
X117204298Y-81077097D01*
X118017395Y-80264000D01*
X118376605Y-80264000D01*
X119189702Y-81077097D01*
X119433671Y-81005514D01*
X119554571Y-80750004D01*
X119623300Y-80475816D01*
X119637217Y-80193488D01*
X119595787Y-79913870D01*
X119500603Y-79647708D01*
X119433671Y-79522486D01*
X119189702Y-79450903D01*
X118376605Y-80264000D01*
X118017395Y-80264000D01*
X117204298Y-79450903D01*
X117135072Y-79471215D01*
X117135072Y-79464000D01*
X117122812Y-79339518D01*
X117102118Y-79271298D01*
X117383903Y-79271298D01*
X118197000Y-80084395D01*
X119010097Y-79271298D01*
X118938514Y-79027329D01*
X118683004Y-78906429D01*
X118408816Y-78837700D01*
X118126488Y-78823783D01*
X117846870Y-78865213D01*
X117580708Y-78960397D01*
X117455486Y-79027329D01*
X117383903Y-79271298D01*
X117102118Y-79271298D01*
X117086502Y-79219820D01*
X117027537Y-79109506D01*
X116948185Y-79012815D01*
X116851494Y-78933463D01*
X116741180Y-78874498D01*
X116621482Y-78838188D01*
X116497000Y-78825928D01*
X114897000Y-78825928D01*
X114772518Y-78838188D01*
X114652820Y-78874498D01*
X114542506Y-78933463D01*
X114445815Y-79012815D01*
X114366463Y-79109506D01*
X114307498Y-79219820D01*
X114271188Y-79339518D01*
X114258928Y-79464000D01*
X102641000Y-79464000D01*
X102641000Y-76860000D01*
X132309001Y-76860000D01*
X132309001Y-78046021D01*
X132309001Y-78046021D01*
G37*
X132309001Y-78046021D02*
X132304706Y-78037986D01*
X132119134Y-77811866D01*
X131893014Y-77626294D01*
X131635034Y-77488401D01*
X131355111Y-77403487D01*
X131136950Y-77382000D01*
X130991050Y-77382000D01*
X130772889Y-77403487D01*
X130492966Y-77488401D01*
X130234986Y-77626294D01*
X130008866Y-77811866D01*
X129984393Y-77841687D01*
X129963502Y-77772820D01*
X129904537Y-77662506D01*
X129825185Y-77565815D01*
X129728494Y-77486463D01*
X129618180Y-77427498D01*
X129498482Y-77391188D01*
X129374000Y-77378928D01*
X127674000Y-77378928D01*
X127549518Y-77391188D01*
X127429820Y-77427498D01*
X127319506Y-77486463D01*
X127222815Y-77565815D01*
X127143463Y-77662506D01*
X127084498Y-77772820D01*
X127048188Y-77892518D01*
X127035928Y-78017000D01*
X127035928Y-79717000D01*
X127048188Y-79841482D01*
X127084498Y-79961180D01*
X127143463Y-80071494D01*
X127222815Y-80168185D01*
X127319506Y-80247537D01*
X127429820Y-80306502D01*
X127510466Y-80330966D01*
X127426412Y-80406731D01*
X127252359Y-80640080D01*
X127127175Y-80902901D01*
X127082524Y-81050110D01*
X127203845Y-81280000D01*
X128397000Y-81280000D01*
X128397000Y-81260000D01*
X128651000Y-81260000D01*
X128651000Y-81280000D01*
X130937000Y-81280000D01*
X130937000Y-81260000D01*
X131191000Y-81260000D01*
X131191000Y-81280000D01*
X131211000Y-81280000D01*
X131211000Y-81534000D01*
X131191000Y-81534000D01*
X131191000Y-82727814D01*
X131420891Y-82848481D01*
X131695252Y-82751157D01*
X131945355Y-82602178D01*
X132161588Y-82407269D01*
X132309000Y-82209637D01*
X132309000Y-83160000D01*
X126778419Y-83160000D01*
X126746000Y-83156807D01*
X126713581Y-83160000D01*
X126616617Y-83169550D01*
X126492207Y-83207290D01*
X126377550Y-83268575D01*
X126277052Y-83351052D01*
X126194575Y-83451550D01*
X126133290Y-83566207D01*
X126095550Y-83690617D01*
X126082807Y-83820000D01*
X126086001Y-83852429D01*
X126086000Y-121506581D01*
X126082807Y-121539000D01*
X126095550Y-121668383D01*
X126133290Y-121792793D01*
X126194575Y-121907450D01*
X126244152Y-121967859D01*
X126277052Y-122007948D01*
X126377550Y-122090425D01*
X126492207Y-122151710D01*
X126616617Y-122189450D01*
X126746000Y-122202193D01*
X126778419Y-122199000D01*
X132309001Y-122199000D01*
X132309001Y-122940021D01*
X132304706Y-122931986D01*
X132119134Y-122705866D01*
X131893014Y-122520294D01*
X131635034Y-122382401D01*
X131355111Y-122297487D01*
X131136950Y-122276000D01*
X130991050Y-122276000D01*
X130772889Y-122297487D01*
X130492966Y-122382401D01*
X130234986Y-122520294D01*
X130008866Y-122705866D01*
X129984393Y-122735687D01*
X129963502Y-122666820D01*
X129904537Y-122556506D01*
X129825185Y-122459815D01*
X129728494Y-122380463D01*
X129618180Y-122321498D01*
X129498482Y-122285188D01*
X129374000Y-122272928D01*
X127674000Y-122272928D01*
X127549518Y-122285188D01*
X127429820Y-122321498D01*
X127319506Y-122380463D01*
X127222815Y-122459815D01*
X127143463Y-122556506D01*
X127084498Y-122666820D01*
X127048188Y-122786518D01*
X127035928Y-122911000D01*
X127035928Y-124611000D01*
X127048188Y-124735482D01*
X127084498Y-124855180D01*
X127143463Y-124965494D01*
X127222815Y-125062185D01*
X127319506Y-125141537D01*
X127429820Y-125200502D01*
X127510466Y-125224966D01*
X127426412Y-125300731D01*
X127252359Y-125534080D01*
X127127175Y-125796901D01*
X127082524Y-125944110D01*
X127203845Y-126174000D01*
X128397000Y-126174000D01*
X128397000Y-126154000D01*
X128651000Y-126154000D01*
X128651000Y-126174000D01*
X130937000Y-126174000D01*
X130937000Y-126154000D01*
X131191000Y-126154000D01*
X131191000Y-126174000D01*
X131211000Y-126174000D01*
X131211000Y-126428000D01*
X131191000Y-126428000D01*
X131191000Y-126448000D01*
X130937000Y-126448000D01*
X130937000Y-126428000D01*
X128651000Y-126428000D01*
X128651000Y-126448000D01*
X128397000Y-126448000D01*
X128397000Y-126428000D01*
X127203845Y-126428000D01*
X127082524Y-126657890D01*
X127127175Y-126805099D01*
X127252359Y-127067920D01*
X127426412Y-127301269D01*
X127642645Y-127496178D01*
X127892748Y-127645157D01*
X128151658Y-127737000D01*
X122766657Y-127737000D01*
X122961759Y-127606637D01*
X123161637Y-127406759D01*
X123318680Y-127171727D01*
X123426853Y-126910574D01*
X123482000Y-126633335D01*
X123482000Y-126350665D01*
X123426853Y-126073426D01*
X123318680Y-125812273D01*
X123161637Y-125577241D01*
X122961759Y-125377363D01*
X122726727Y-125220320D01*
X122465574Y-125112147D01*
X122188335Y-125057000D01*
X121905665Y-125057000D01*
X121628426Y-125112147D01*
X121367273Y-125220320D01*
X121132241Y-125377363D01*
X120932363Y-125577241D01*
X120775320Y-125812273D01*
X120667147Y-126073426D01*
X120612000Y-126350665D01*
X120612000Y-126633335D01*
X120667147Y-126910574D01*
X120775320Y-127171727D01*
X120932363Y-127406759D01*
X121132241Y-127606637D01*
X121327343Y-127737000D01*
X114824504Y-127737000D01*
X114962013Y-127599491D01*
X115173775Y-127282566D01*
X115319639Y-126930419D01*
X115394000Y-126556581D01*
X115394000Y-126175419D01*
X115319639Y-125801581D01*
X115173775Y-125449434D01*
X114962013Y-125132509D01*
X114692491Y-124862987D01*
X114375566Y-124651225D01*
X114023419Y-124505361D01*
X113649581Y-124431000D01*
X113268419Y-124431000D01*
X112894581Y-124505361D01*
X112542434Y-124651225D01*
X112225509Y-124862987D01*
X111955987Y-125132509D01*
X111744225Y-125449434D01*
X111598361Y-125801581D01*
X111524000Y-126175419D01*
X111524000Y-126556581D01*
X111598361Y-126930419D01*
X111744225Y-127282566D01*
X111955987Y-127599491D01*
X112093496Y-127737000D01*
X102641000Y-127737000D01*
X102641000Y-111295000D01*
X102782928Y-111295000D01*
X102782928Y-113495000D01*
X102795188Y-113619482D01*
X102831498Y-113739180D01*
X102890463Y-113849494D01*
X102969815Y-113946185D01*
X103066506Y-114025537D01*
X103176820Y-114084502D01*
X103296518Y-114120812D01*
X103421000Y-114133072D01*
X105621000Y-114133072D01*
X105745482Y-114120812D01*
X105865180Y-114084502D01*
X105975494Y-114025537D01*
X106072185Y-113946185D01*
X106151537Y-113849494D01*
X106210502Y-113739180D01*
X106246812Y-113619482D01*
X106259072Y-113495000D01*
X106259072Y-111295000D01*
X106246812Y-111170518D01*
X106210502Y-111050820D01*
X106151537Y-110940506D01*
X106072185Y-110843815D01*
X105975494Y-110764463D01*
X105865180Y-110705498D01*
X105745482Y-110669188D01*
X105621000Y-110656928D01*
X103421000Y-110656928D01*
X103296518Y-110669188D01*
X103176820Y-110705498D01*
X103066506Y-110764463D01*
X102969815Y-110843815D01*
X102890463Y-110940506D01*
X102831498Y-111050820D01*
X102795188Y-111170518D01*
X102782928Y-111295000D01*
X102641000Y-111295000D01*
X102641000Y-107231000D01*
X102782928Y-107231000D01*
X102782928Y-109431000D01*
X102795188Y-109555482D01*
X102831498Y-109675180D01*
X102890463Y-109785494D01*
X102969815Y-109882185D01*
X103066506Y-109961537D01*
X103176820Y-110020502D01*
X103296518Y-110056812D01*
X103421000Y-110069072D01*
X105621000Y-110069072D01*
X105745482Y-110056812D01*
X105865180Y-110020502D01*
X105975494Y-109961537D01*
X106072185Y-109882185D01*
X106151537Y-109785494D01*
X106210502Y-109675180D01*
X106246812Y-109555482D01*
X106259072Y-109431000D01*
X106259072Y-107231000D01*
X106246812Y-107106518D01*
X106210502Y-106986820D01*
X106151537Y-106876506D01*
X106072185Y-106779815D01*
X105975494Y-106700463D01*
X105865180Y-106641498D01*
X105745482Y-106605188D01*
X105621000Y-106592928D01*
X103421000Y-106592928D01*
X103296518Y-106605188D01*
X103176820Y-106641498D01*
X103066506Y-106700463D01*
X102969815Y-106779815D01*
X102890463Y-106876506D01*
X102831498Y-106986820D01*
X102795188Y-107106518D01*
X102782928Y-107231000D01*
X102641000Y-107231000D01*
X102641000Y-103167000D01*
X102782928Y-103167000D01*
X102782928Y-105367000D01*
X102795188Y-105491482D01*
X102831498Y-105611180D01*
X102890463Y-105721494D01*
X102969815Y-105818185D01*
X103066506Y-105897537D01*
X103176820Y-105956502D01*
X103296518Y-105992812D01*
X103421000Y-106005072D01*
X105621000Y-106005072D01*
X105745482Y-105992812D01*
X105865180Y-105956502D01*
X105975494Y-105897537D01*
X106072185Y-105818185D01*
X106151537Y-105721494D01*
X106210502Y-105611180D01*
X106246812Y-105491482D01*
X106259072Y-105367000D01*
X106259072Y-105083229D01*
X113031530Y-111855687D01*
X112971105Y-112054881D01*
X112937606Y-112395000D01*
X112971105Y-112735119D01*
X113070314Y-113062168D01*
X113231421Y-113363578D01*
X113448234Y-113627766D01*
X113712422Y-113844579D01*
X113896001Y-113942704D01*
X113896000Y-117118843D01*
X111154985Y-119859858D01*
X111023419Y-119805361D01*
X110649581Y-119731000D01*
X110268419Y-119731000D01*
X109894581Y-119805361D01*
X109542434Y-119951225D01*
X109225509Y-120162987D01*
X108955987Y-120432509D01*
X108744225Y-120749434D01*
X108598361Y-121101581D01*
X108524000Y-121475419D01*
X108524000Y-121856581D01*
X108598361Y-122230419D01*
X108744225Y-122582566D01*
X108955987Y-122899491D01*
X109225509Y-123169013D01*
X109542434Y-123380775D01*
X109894581Y-123526639D01*
X110268419Y-123601000D01*
X110649581Y-123601000D01*
X111023419Y-123526639D01*
X111375566Y-123380775D01*
X111692491Y-123169013D01*
X111962013Y-122899491D01*
X112173775Y-122582566D01*
X112319639Y-122230419D01*
X112394000Y-121856581D01*
X112394000Y-121475419D01*
X112319639Y-121101581D01*
X112265142Y-120970015D01*
X112869157Y-120366000D01*
X114520928Y-120366000D01*
X114520928Y-122966000D01*
X114533188Y-123090482D01*
X114569498Y-123210180D01*
X114628463Y-123320494D01*
X114707815Y-123417185D01*
X114804506Y-123496537D01*
X114914820Y-123555502D01*
X115034518Y-123591812D01*
X115159000Y-123604072D01*
X117759000Y-123604072D01*
X117883482Y-123591812D01*
X118003180Y-123555502D01*
X118113494Y-123496537D01*
X118210185Y-123417185D01*
X118289537Y-123320494D01*
X118348502Y-123210180D01*
X118384812Y-123090482D01*
X118397072Y-122966000D01*
X118397072Y-120366000D01*
X118384812Y-120241518D01*
X118348502Y-120121820D01*
X118289537Y-120011506D01*
X118210185Y-119914815D01*
X118113494Y-119835463D01*
X118003180Y-119776498D01*
X117883482Y-119740188D01*
X117759000Y-119727928D01*
X115159000Y-119727928D01*
X115034518Y-119740188D01*
X114914820Y-119776498D01*
X114804506Y-119835463D01*
X114707815Y-119914815D01*
X114628463Y-120011506D01*
X114569498Y-120121820D01*
X114533188Y-120241518D01*
X114520928Y-120366000D01*
X112869157Y-120366000D01*
X114363157Y-118872000D01*
X120605057Y-118872000D01*
X120632764Y-119153309D01*
X120714818Y-119423808D01*
X120848068Y-119673101D01*
X121027392Y-119891608D01*
X121245899Y-120070932D01*
X121495192Y-120204182D01*
X121765691Y-120286236D01*
X121976508Y-120307000D01*
X122117492Y-120307000D01*
X122328309Y-120286236D01*
X122598808Y-120204182D01*
X122848101Y-120070932D01*
X123066608Y-119891608D01*
X123245932Y-119673101D01*
X123379182Y-119423808D01*
X123461236Y-119153309D01*
X123488943Y-118872000D01*
X123461236Y-118590691D01*
X123379182Y-118320192D01*
X123245932Y-118070899D01*
X123066608Y-117852392D01*
X122848101Y-117673068D01*
X122598808Y-117539818D01*
X122328309Y-117457764D01*
X122117492Y-117437000D01*
X121976508Y-117437000D01*
X121765691Y-117457764D01*
X121495192Y-117539818D01*
X121245899Y-117673068D01*
X121027392Y-117852392D01*
X120848068Y-118070899D01*
X120714818Y-118320192D01*
X120632764Y-118590691D01*
X120605057Y-118872000D01*
X114363157Y-118872000D01*
X115208811Y-118026346D01*
X115238764Y-118001764D01*
X115336862Y-117882233D01*
X115409754Y-117745860D01*
X115409754Y-117745859D01*
X115454642Y-117597887D01*
X115462020Y-117522974D01*
X115466000Y-117482561D01*
X115466000Y-117482556D01*
X115469797Y-117444000D01*
X115466000Y-117405444D01*
X115466000Y-113942703D01*
X115649578Y-113844579D01*
X115913766Y-113627766D01*
X116130579Y-113363578D01*
X116167234Y-113295000D01*
X120061928Y-113295000D01*
X120074188Y-113419482D01*
X120110498Y-113539180D01*
X120169463Y-113649494D01*
X120248815Y-113746185D01*
X120345506Y-113825537D01*
X120455820Y-113884502D01*
X120575518Y-113920812D01*
X120700000Y-113933072D01*
X121314250Y-113930000D01*
X121473000Y-113771250D01*
X121473000Y-112522000D01*
X120223750Y-112522000D01*
X120065000Y-112680750D01*
X120061928Y-113295000D01*
X116167234Y-113295000D01*
X116291686Y-113062168D01*
X116390895Y-112735119D01*
X116424394Y-112395000D01*
X116390895Y-112054881D01*
X116291686Y-111727832D01*
X116167235Y-111495000D01*
X120061928Y-111495000D01*
X120065000Y-112109250D01*
X120223750Y-112268000D01*
X121473000Y-112268000D01*
X121473000Y-111018750D01*
X121727000Y-111018750D01*
X121727000Y-112268000D01*
X121747000Y-112268000D01*
X121747000Y-112522000D01*
X121727000Y-112522000D01*
X121727000Y-113771250D01*
X121885750Y-113930000D01*
X122500000Y-113933072D01*
X122624482Y-113920812D01*
X122744180Y-113884502D01*
X122854494Y-113825537D01*
X122951185Y-113746185D01*
X123030537Y-113649494D01*
X123089502Y-113539180D01*
X123095056Y-113520873D01*
X123161495Y-113587312D01*
X123412905Y-113755299D01*
X123692257Y-113871011D01*
X123988816Y-113930000D01*
X124291184Y-113930000D01*
X124587743Y-113871011D01*
X124867095Y-113755299D01*
X125118505Y-113587312D01*
X125332312Y-113373505D01*
X125500299Y-113122095D01*
X125616011Y-112842743D01*
X125675000Y-112546184D01*
X125675000Y-112243816D01*
X125616011Y-111947257D01*
X125500299Y-111667905D01*
X125332312Y-111416495D01*
X125118505Y-111202688D01*
X124867095Y-111034701D01*
X124587743Y-110918989D01*
X124291184Y-110860000D01*
X123988816Y-110860000D01*
X123692257Y-110918989D01*
X123412905Y-111034701D01*
X123161495Y-111202688D01*
X123095056Y-111269127D01*
X123089502Y-111250820D01*
X123030537Y-111140506D01*
X122951185Y-111043815D01*
X122854494Y-110964463D01*
X122744180Y-110905498D01*
X122624482Y-110869188D01*
X122500000Y-110856928D01*
X121885750Y-110860000D01*
X121727000Y-111018750D01*
X121473000Y-111018750D01*
X121314250Y-110860000D01*
X120700000Y-110856928D01*
X120575518Y-110869188D01*
X120455820Y-110905498D01*
X120345506Y-110964463D01*
X120248815Y-111043815D01*
X120169463Y-111140506D01*
X120110498Y-111250820D01*
X120074188Y-111370518D01*
X120061928Y-111495000D01*
X116167235Y-111495000D01*
X116130579Y-111426422D01*
X115913766Y-111162234D01*
X115649578Y-110945421D01*
X115348168Y-110784314D01*
X115021119Y-110685105D01*
X114766225Y-110660000D01*
X114595775Y-110660000D01*
X114340881Y-110685105D01*
X114141687Y-110745530D01*
X111727157Y-108331000D01*
X112937606Y-108331000D01*
X112971105Y-108671119D01*
X113070314Y-108998168D01*
X113231421Y-109299578D01*
X113448234Y-109563766D01*
X113712422Y-109780579D01*
X114013832Y-109941686D01*
X114340881Y-110040895D01*
X114595775Y-110066000D01*
X114766225Y-110066000D01*
X115021119Y-110040895D01*
X115348168Y-109941686D01*
X115649578Y-109780579D01*
X115913766Y-109563766D01*
X116130579Y-109299578D01*
X116291686Y-108998168D01*
X116390895Y-108671119D01*
X116424394Y-108331000D01*
X116390895Y-107990881D01*
X116291686Y-107663832D01*
X116130579Y-107362422D01*
X115913766Y-107098234D01*
X115649578Y-106881421D01*
X115348168Y-106720314D01*
X115021119Y-106621105D01*
X114766225Y-106596000D01*
X114595775Y-106596000D01*
X114340881Y-106621105D01*
X114013832Y-106720314D01*
X113712422Y-106881421D01*
X113448234Y-107098234D01*
X113231421Y-107362422D01*
X113070314Y-107663832D01*
X112971105Y-107990881D01*
X112937606Y-108331000D01*
X111727157Y-108331000D01*
X108059279Y-104663122D01*
X112991825Y-104663122D01*
X113056425Y-104876094D01*
X113206469Y-105181329D01*
X113413178Y-105451427D01*
X113668609Y-105676008D01*
X113962946Y-105846442D01*
X114284877Y-105956179D01*
X114554000Y-105838600D01*
X114554000Y-104394000D01*
X114808000Y-104394000D01*
X114808000Y-105838600D01*
X115077123Y-105956179D01*
X115399054Y-105846442D01*
X115693391Y-105676008D01*
X115948822Y-105451427D01*
X116155531Y-105181329D01*
X116305575Y-104876094D01*
X116370175Y-104663122D01*
X116252125Y-104394000D01*
X114808000Y-104394000D01*
X114554000Y-104394000D01*
X113109875Y-104394000D01*
X112991825Y-104663122D01*
X108059279Y-104663122D01*
X107267035Y-103870878D01*
X112991825Y-103870878D01*
X113109875Y-104140000D01*
X114554000Y-104140000D01*
X114554000Y-102695400D01*
X114808000Y-102695400D01*
X114808000Y-104140000D01*
X116252125Y-104140000D01*
X116370175Y-103870878D01*
X116305575Y-103657906D01*
X116155531Y-103352671D01*
X115948822Y-103082573D01*
X115693391Y-102857992D01*
X115551793Y-102776000D01*
X121220928Y-102776000D01*
X121220928Y-104676000D01*
X121233188Y-104800482D01*
X121269498Y-104920180D01*
X121328463Y-105030494D01*
X121407815Y-105127185D01*
X121504506Y-105206537D01*
X121614820Y-105265502D01*
X121734518Y-105301812D01*
X121859000Y-105314072D01*
X123759000Y-105314072D01*
X123883482Y-105301812D01*
X124003180Y-105265502D01*
X124113494Y-105206537D01*
X124210185Y-105127185D01*
X124289537Y-105030494D01*
X124348502Y-104920180D01*
X124384812Y-104800482D01*
X124397072Y-104676000D01*
X124397072Y-102776000D01*
X124384812Y-102651518D01*
X124348502Y-102531820D01*
X124289537Y-102421506D01*
X124210185Y-102324815D01*
X124113494Y-102245463D01*
X124054979Y-102214186D01*
X124213609Y-101976779D01*
X124333089Y-101688327D01*
X124394000Y-101382109D01*
X124394000Y-101069891D01*
X124333089Y-100763673D01*
X124213609Y-100475221D01*
X124040150Y-100215621D01*
X123819379Y-99994850D01*
X123791168Y-99976000D01*
X123819379Y-99957150D01*
X124040150Y-99736379D01*
X124213609Y-99476779D01*
X124333089Y-99188327D01*
X124394000Y-98882109D01*
X124394000Y-98569891D01*
X124333089Y-98263673D01*
X124213609Y-97975221D01*
X124040150Y-97715621D01*
X123819379Y-97494850D01*
X123559779Y-97321391D01*
X123271327Y-97201911D01*
X122965109Y-97141000D01*
X122652891Y-97141000D01*
X122346673Y-97201911D01*
X122058221Y-97321391D01*
X121798621Y-97494850D01*
X121577850Y-97715621D01*
X121404391Y-97975221D01*
X121284911Y-98263673D01*
X121224000Y-98569891D01*
X121224000Y-98882109D01*
X121284911Y-99188327D01*
X121404391Y-99476779D01*
X121577850Y-99736379D01*
X121798621Y-99957150D01*
X121826832Y-99976000D01*
X121798621Y-99994850D01*
X121577850Y-100215621D01*
X121404391Y-100475221D01*
X121284911Y-100763673D01*
X121224000Y-101069891D01*
X121224000Y-101382109D01*
X121284911Y-101688327D01*
X121404391Y-101976779D01*
X121563021Y-102214186D01*
X121504506Y-102245463D01*
X121407815Y-102324815D01*
X121328463Y-102421506D01*
X121269498Y-102531820D01*
X121233188Y-102651518D01*
X121220928Y-102776000D01*
X115551793Y-102776000D01*
X115399054Y-102687558D01*
X115077123Y-102577821D01*
X114808000Y-102695400D01*
X114554000Y-102695400D01*
X114284877Y-102577821D01*
X113962946Y-102687558D01*
X113668609Y-102857992D01*
X113413178Y-103082573D01*
X113206469Y-103352671D01*
X113056425Y-103657906D01*
X112991825Y-103870878D01*
X107267035Y-103870878D01*
X107135347Y-103739190D01*
X107110764Y-103709236D01*
X106991233Y-103611138D01*
X106854860Y-103538246D01*
X106706887Y-103493359D01*
X106591561Y-103482000D01*
X106591553Y-103482000D01*
X106553000Y-103478203D01*
X106514447Y-103482000D01*
X106259072Y-103482000D01*
X106259072Y-103167000D01*
X106246812Y-103042518D01*
X106210502Y-102922820D01*
X106151537Y-102812506D01*
X106072185Y-102715815D01*
X105975494Y-102636463D01*
X105865180Y-102577498D01*
X105745482Y-102541188D01*
X105621000Y-102528928D01*
X103421000Y-102528928D01*
X103296518Y-102541188D01*
X103176820Y-102577498D01*
X103066506Y-102636463D01*
X102969815Y-102715815D01*
X102890463Y-102812506D01*
X102831498Y-102922820D01*
X102795188Y-103042518D01*
X102782928Y-103167000D01*
X102641000Y-103167000D01*
X102641000Y-99103000D01*
X102782928Y-99103000D01*
X102782928Y-101303000D01*
X102795188Y-101427482D01*
X102831498Y-101547180D01*
X102890463Y-101657494D01*
X102969815Y-101754185D01*
X103066506Y-101833537D01*
X103176820Y-101892502D01*
X103296518Y-101928812D01*
X103421000Y-101941072D01*
X105621000Y-101941072D01*
X105745482Y-101928812D01*
X105865180Y-101892502D01*
X105975494Y-101833537D01*
X106072185Y-101754185D01*
X106151537Y-101657494D01*
X106210502Y-101547180D01*
X106246812Y-101427482D01*
X106259072Y-101303000D01*
X106259072Y-100599122D01*
X112991825Y-100599122D01*
X113056425Y-100812094D01*
X113206469Y-101117329D01*
X113413178Y-101387427D01*
X113668609Y-101612008D01*
X113962946Y-101782442D01*
X114284877Y-101892179D01*
X114554000Y-101774600D01*
X114554000Y-100330000D01*
X114808000Y-100330000D01*
X114808000Y-101774600D01*
X115077123Y-101892179D01*
X115399054Y-101782442D01*
X115693391Y-101612008D01*
X115948822Y-101387427D01*
X116155531Y-101117329D01*
X116305575Y-100812094D01*
X116370175Y-100599122D01*
X116252125Y-100330000D01*
X114808000Y-100330000D01*
X114554000Y-100330000D01*
X113109875Y-100330000D01*
X112991825Y-100599122D01*
X106259072Y-100599122D01*
X106259072Y-99806878D01*
X112991825Y-99806878D01*
X113109875Y-100076000D01*
X114554000Y-100076000D01*
X114554000Y-98631400D01*
X114808000Y-98631400D01*
X114808000Y-100076000D01*
X116252125Y-100076000D01*
X116370175Y-99806878D01*
X116305575Y-99593906D01*
X116155531Y-99288671D01*
X115948822Y-99018573D01*
X115693391Y-98793992D01*
X115399054Y-98623558D01*
X115077123Y-98513821D01*
X114808000Y-98631400D01*
X114554000Y-98631400D01*
X114284877Y-98513821D01*
X113962946Y-98623558D01*
X113668609Y-98793992D01*
X113413178Y-99018573D01*
X113206469Y-99288671D01*
X113056425Y-99593906D01*
X112991825Y-99806878D01*
X106259072Y-99806878D01*
X106259072Y-99103000D01*
X106246812Y-98978518D01*
X106210502Y-98858820D01*
X106151537Y-98748506D01*
X106072185Y-98651815D01*
X105975494Y-98572463D01*
X105865180Y-98513498D01*
X105745482Y-98477188D01*
X105621000Y-98464928D01*
X103421000Y-98464928D01*
X103296518Y-98477188D01*
X103176820Y-98513498D01*
X103066506Y-98572463D01*
X102969815Y-98651815D01*
X102890463Y-98748506D01*
X102831498Y-98858820D01*
X102795188Y-98978518D01*
X102782928Y-99103000D01*
X102641000Y-99103000D01*
X102641000Y-92726000D01*
X103378428Y-92726000D01*
X103378428Y-94726000D01*
X103390688Y-94850482D01*
X103426998Y-94970180D01*
X103485963Y-95080494D01*
X103565315Y-95177185D01*
X103662006Y-95256537D01*
X103772320Y-95315502D01*
X103892018Y-95351812D01*
X104016500Y-95364072D01*
X105921500Y-95364072D01*
X106045982Y-95351812D01*
X106165680Y-95315502D01*
X106275994Y-95256537D01*
X106372685Y-95177185D01*
X106452037Y-95080494D01*
X106501059Y-94988781D01*
X106642077Y-95101969D01*
X106917906Y-95245571D01*
X107136020Y-95316563D01*
X107382000Y-95196594D01*
X107382000Y-93853000D01*
X107362000Y-93853000D01*
X107362000Y-93599000D01*
X107382000Y-93599000D01*
X107382000Y-92255406D01*
X107636000Y-92255406D01*
X107636000Y-93599000D01*
X107656000Y-93599000D01*
X107656000Y-93853000D01*
X107636000Y-93853000D01*
X107636000Y-95196594D01*
X107881980Y-95316563D01*
X108100094Y-95245571D01*
X108375923Y-95101969D01*
X108618437Y-94907315D01*
X108773837Y-94722101D01*
X108921037Y-94901463D01*
X109162766Y-95099845D01*
X109438552Y-95247255D01*
X109737797Y-95338030D01*
X110049000Y-95368681D01*
X110360204Y-95338030D01*
X110659449Y-95247255D01*
X110918733Y-95108665D01*
X115024000Y-95108665D01*
X115024000Y-95391335D01*
X115079147Y-95668574D01*
X115187320Y-95929727D01*
X115344363Y-96164759D01*
X115544241Y-96364637D01*
X115779273Y-96521680D01*
X116040426Y-96629853D01*
X116317665Y-96685000D01*
X116600335Y-96685000D01*
X116877574Y-96629853D01*
X117138727Y-96521680D01*
X117373759Y-96364637D01*
X117573637Y-96164759D01*
X117730680Y-95929727D01*
X117838853Y-95668574D01*
X117894000Y-95391335D01*
X117894000Y-95108665D01*
X117838853Y-94831426D01*
X117730680Y-94570273D01*
X117573637Y-94335241D01*
X117373759Y-94135363D01*
X117138727Y-93978320D01*
X116877574Y-93870147D01*
X116600335Y-93815000D01*
X116317665Y-93815000D01*
X116040426Y-93870147D01*
X115779273Y-93978320D01*
X115544241Y-94135363D01*
X115344363Y-94335241D01*
X115187320Y-94570273D01*
X115079147Y-94831426D01*
X115024000Y-95108665D01*
X110918733Y-95108665D01*
X110935235Y-95099845D01*
X111176963Y-94901463D01*
X111375345Y-94659734D01*
X111522755Y-94383948D01*
X111613530Y-94084703D01*
X111636500Y-93851485D01*
X111636500Y-93600514D01*
X111613530Y-93367296D01*
X111522755Y-93068051D01*
X111375345Y-92792265D01*
X111176963Y-92550537D01*
X110935234Y-92352155D01*
X110659448Y-92204745D01*
X110360203Y-92113970D01*
X110049000Y-92083319D01*
X109737796Y-92113970D01*
X109438551Y-92204745D01*
X109162765Y-92352155D01*
X108921037Y-92550537D01*
X108773838Y-92729900D01*
X108618437Y-92544685D01*
X108375923Y-92350031D01*
X108100094Y-92206429D01*
X107881980Y-92135437D01*
X107636000Y-92255406D01*
X107382000Y-92255406D01*
X107136020Y-92135437D01*
X106917906Y-92206429D01*
X106642077Y-92350031D01*
X106501059Y-92463219D01*
X106452037Y-92371506D01*
X106372685Y-92274815D01*
X106275994Y-92195463D01*
X106165680Y-92136498D01*
X106045982Y-92100188D01*
X105921500Y-92087928D01*
X104016500Y-92087928D01*
X103892018Y-92100188D01*
X103772320Y-92136498D01*
X103662006Y-92195463D01*
X103565315Y-92274815D01*
X103485963Y-92371506D01*
X103426998Y-92481820D01*
X103390688Y-92601518D01*
X103378428Y-92726000D01*
X102641000Y-92726000D01*
X102641000Y-91197000D01*
X120061928Y-91197000D01*
X120074188Y-91321482D01*
X120110498Y-91441180D01*
X120169463Y-91551494D01*
X120248815Y-91648185D01*
X120345506Y-91727537D01*
X120455820Y-91786502D01*
X120575518Y-91822812D01*
X120700000Y-91835072D01*
X121314250Y-91832000D01*
X121473000Y-91673250D01*
X121473000Y-90424000D01*
X120223750Y-90424000D01*
X120065000Y-90582750D01*
X120061928Y-91197000D01*
X102641000Y-91197000D01*
X102641000Y-89397000D01*
X120061928Y-89397000D01*
X120065000Y-90011250D01*
X120223750Y-90170000D01*
X121473000Y-90170000D01*
X121473000Y-88920750D01*
X121727000Y-88920750D01*
X121727000Y-90170000D01*
X121747000Y-90170000D01*
X121747000Y-90424000D01*
X121727000Y-90424000D01*
X121727000Y-91673250D01*
X121885750Y-91832000D01*
X122500000Y-91835072D01*
X122624482Y-91822812D01*
X122744180Y-91786502D01*
X122854494Y-91727537D01*
X122951185Y-91648185D01*
X123030537Y-91551494D01*
X123089502Y-91441180D01*
X123095056Y-91422873D01*
X123161495Y-91489312D01*
X123412905Y-91657299D01*
X123692257Y-91773011D01*
X123988816Y-91832000D01*
X124291184Y-91832000D01*
X124587743Y-91773011D01*
X124867095Y-91657299D01*
X125118505Y-91489312D01*
X125332312Y-91275505D01*
X125500299Y-91024095D01*
X125616011Y-90744743D01*
X125675000Y-90448184D01*
X125675000Y-90145816D01*
X125616011Y-89849257D01*
X125500299Y-89569905D01*
X125332312Y-89318495D01*
X125118505Y-89104688D01*
X124867095Y-88936701D01*
X124587743Y-88820989D01*
X124291184Y-88762000D01*
X123988816Y-88762000D01*
X123692257Y-88820989D01*
X123412905Y-88936701D01*
X123161495Y-89104688D01*
X123095056Y-89171127D01*
X123089502Y-89152820D01*
X123030537Y-89042506D01*
X122951185Y-88945815D01*
X122854494Y-88866463D01*
X122744180Y-88807498D01*
X122624482Y-88771188D01*
X122500000Y-88758928D01*
X121885750Y-88762000D01*
X121727000Y-88920750D01*
X121473000Y-88920750D01*
X121314250Y-88762000D01*
X120700000Y-88758928D01*
X120575518Y-88771188D01*
X120455820Y-88807498D01*
X120345506Y-88866463D01*
X120248815Y-88945815D01*
X120169463Y-89042506D01*
X120110498Y-89152820D01*
X120074188Y-89272518D01*
X120061928Y-89397000D01*
X102641000Y-89397000D01*
X102641000Y-87630000D01*
X115017057Y-87630000D01*
X115044764Y-87911309D01*
X115126818Y-88181808D01*
X115260068Y-88431101D01*
X115439392Y-88649608D01*
X115657899Y-88828932D01*
X115907192Y-88962182D01*
X116177691Y-89044236D01*
X116388508Y-89065000D01*
X116529492Y-89065000D01*
X116740309Y-89044236D01*
X117010808Y-88962182D01*
X117260101Y-88828932D01*
X117478608Y-88649608D01*
X117657932Y-88431101D01*
X117791182Y-88181808D01*
X117873236Y-87911309D01*
X117900943Y-87630000D01*
X117873236Y-87348691D01*
X117791182Y-87078192D01*
X117657932Y-86828899D01*
X117478608Y-86610392D01*
X117260101Y-86431068D01*
X117010808Y-86297818D01*
X116740309Y-86215764D01*
X116529492Y-86195000D01*
X116388508Y-86195000D01*
X116177691Y-86215764D01*
X115907192Y-86297818D01*
X115657899Y-86431068D01*
X115439392Y-86610392D01*
X115260068Y-86828899D01*
X115126818Y-87078192D01*
X115044764Y-87348691D01*
X115017057Y-87630000D01*
X102641000Y-87630000D01*
X102641000Y-81114000D01*
X103517928Y-81114000D01*
X103517928Y-83114000D01*
X103530188Y-83238482D01*
X103566498Y-83358180D01*
X103625463Y-83468494D01*
X103704815Y-83565185D01*
X103801506Y-83644537D01*
X103911820Y-83703502D01*
X104031518Y-83739812D01*
X104156000Y-83752072D01*
X106156000Y-83752072D01*
X106280482Y-83739812D01*
X106400180Y-83703502D01*
X106510494Y-83644537D01*
X106607185Y-83565185D01*
X106686537Y-83468494D01*
X106745502Y-83358180D01*
X106778496Y-83249413D01*
X109200192Y-83249413D01*
X109295956Y-83513814D01*
X109585571Y-83654704D01*
X109897108Y-83736384D01*
X110218595Y-83755718D01*
X110537675Y-83711961D01*
X110842088Y-83606795D01*
X111016044Y-83513814D01*
X111111808Y-83249413D01*
X110156000Y-82293605D01*
X109200192Y-83249413D01*
X106778496Y-83249413D01*
X106781812Y-83238482D01*
X106794072Y-83114000D01*
X106794072Y-82176595D01*
X108514282Y-82176595D01*
X108558039Y-82495675D01*
X108663205Y-82800088D01*
X108756186Y-82974044D01*
X109020587Y-83069808D01*
X109976395Y-82114000D01*
X110335605Y-82114000D01*
X111291413Y-83069808D01*
X111555814Y-82974044D01*
X111696704Y-82684429D01*
X111778384Y-82372892D01*
X111797718Y-82051405D01*
X111758290Y-81763890D01*
X127082524Y-81763890D01*
X127127175Y-81911099D01*
X127252359Y-82173920D01*
X127426412Y-82407269D01*
X127642645Y-82602178D01*
X127892748Y-82751157D01*
X128167109Y-82848481D01*
X128397000Y-82727814D01*
X128397000Y-81534000D01*
X128651000Y-81534000D01*
X128651000Y-82727814D01*
X128880891Y-82848481D01*
X129155252Y-82751157D01*
X129405355Y-82602178D01*
X129621588Y-82407269D01*
X129794000Y-82176120D01*
X129966412Y-82407269D01*
X130182645Y-82602178D01*
X130432748Y-82751157D01*
X130707109Y-82848481D01*
X130937000Y-82727814D01*
X130937000Y-81534000D01*
X128651000Y-81534000D01*
X128397000Y-81534000D01*
X127203845Y-81534000D01*
X127082524Y-81763890D01*
X111758290Y-81763890D01*
X111753961Y-81732325D01*
X111648795Y-81427912D01*
X111555814Y-81253956D01*
X111291413Y-81158192D01*
X110335605Y-82114000D01*
X109976395Y-82114000D01*
X109020587Y-81158192D01*
X108756186Y-81253956D01*
X108615296Y-81543571D01*
X108533616Y-81855108D01*
X108514282Y-82176595D01*
X106794072Y-82176595D01*
X106794072Y-81114000D01*
X106781812Y-80989518D01*
X106778497Y-80978587D01*
X109200192Y-80978587D01*
X110156000Y-81934395D01*
X111111808Y-80978587D01*
X111016044Y-80714186D01*
X110726429Y-80573296D01*
X110414892Y-80491616D01*
X110093405Y-80472282D01*
X109774325Y-80516039D01*
X109469912Y-80621205D01*
X109295956Y-80714186D01*
X109200192Y-80978587D01*
X106778497Y-80978587D01*
X106745502Y-80869820D01*
X106686537Y-80759506D01*
X106607185Y-80662815D01*
X106510494Y-80583463D01*
X106400180Y-80524498D01*
X106280482Y-80488188D01*
X106156000Y-80475928D01*
X104156000Y-80475928D01*
X104031518Y-80488188D01*
X103911820Y-80524498D01*
X103801506Y-80583463D01*
X103704815Y-80662815D01*
X103625463Y-80759506D01*
X103566498Y-80869820D01*
X103530188Y-80989518D01*
X103517928Y-81114000D01*
X102641000Y-81114000D01*
X102641000Y-79464000D01*
X114258928Y-79464000D01*
X114258928Y-81064000D01*
X114271188Y-81188482D01*
X114307498Y-81308180D01*
X114366463Y-81418494D01*
X114445815Y-81515185D01*
X114542506Y-81594537D01*
X114652820Y-81653502D01*
X114772518Y-81689812D01*
X114897000Y-81702072D01*
X116497000Y-81702072D01*
X116621482Y-81689812D01*
X116741180Y-81653502D01*
X116851494Y-81594537D01*
X116948185Y-81515185D01*
X117027537Y-81418494D01*
X117086502Y-81308180D01*
X117102117Y-81256702D01*
X117383903Y-81256702D01*
X117455486Y-81500671D01*
X117710996Y-81621571D01*
X117985184Y-81690300D01*
X118267512Y-81704217D01*
X118547130Y-81662787D01*
X118813292Y-81567603D01*
X118938514Y-81500671D01*
X119010097Y-81256702D01*
X118197000Y-80443605D01*
X117383903Y-81256702D01*
X117102117Y-81256702D01*
X117122812Y-81188482D01*
X117135072Y-81064000D01*
X117135072Y-81056785D01*
X117204298Y-81077097D01*
X118017395Y-80264000D01*
X118376605Y-80264000D01*
X119189702Y-81077097D01*
X119433671Y-81005514D01*
X119554571Y-80750004D01*
X119623300Y-80475816D01*
X119637217Y-80193488D01*
X119595787Y-79913870D01*
X119500603Y-79647708D01*
X119433671Y-79522486D01*
X119189702Y-79450903D01*
X118376605Y-80264000D01*
X118017395Y-80264000D01*
X117204298Y-79450903D01*
X117135072Y-79471215D01*
X117135072Y-79464000D01*
X117122812Y-79339518D01*
X117102118Y-79271298D01*
X117383903Y-79271298D01*
X118197000Y-80084395D01*
X119010097Y-79271298D01*
X118938514Y-79027329D01*
X118683004Y-78906429D01*
X118408816Y-78837700D01*
X118126488Y-78823783D01*
X117846870Y-78865213D01*
X117580708Y-78960397D01*
X117455486Y-79027329D01*
X117383903Y-79271298D01*
X117102118Y-79271298D01*
X117086502Y-79219820D01*
X117027537Y-79109506D01*
X116948185Y-79012815D01*
X116851494Y-78933463D01*
X116741180Y-78874498D01*
X116621482Y-78838188D01*
X116497000Y-78825928D01*
X114897000Y-78825928D01*
X114772518Y-78838188D01*
X114652820Y-78874498D01*
X114542506Y-78933463D01*
X114445815Y-79012815D01*
X114366463Y-79109506D01*
X114307498Y-79219820D01*
X114271188Y-79339518D01*
X114258928Y-79464000D01*
X102641000Y-79464000D01*
X102641000Y-76860000D01*
X132309001Y-76860000D01*
X132309001Y-78046021D01*
M02*
