G04 #@! TF.GenerationSoftware,KiCad,Pcbnew,(5.1.2)-1*
G04 #@! TF.CreationDate,2019-05-11T09:03:38-04:00*
G04 #@! TF.ProjectId,PowerSupply,506f7765-7253-4757-9070-6c792e6b6963,1*
G04 #@! TF.SameCoordinates,Original*
G04 #@! TF.FileFunction,Soldermask,Top*
G04 #@! TF.FilePolarity,Negative*
%FSLAX46Y46*%
G04 Gerber Fmt 4.6, Leading zero omitted, Abs format (unit mm)*
G04 Created by KiCad (PCBNEW (5.1.2)-1) date 2019-05-11 09:03:38*
%MOMM*%
%LPD*%
G04 APERTURE LIST*
%ADD10C,0.100000*%
G04 APERTURE END LIST*
D10*
G36*
X113853072Y-125066918D02*
G01*
X114098939Y-125168759D01*
X114320212Y-125316610D01*
X114508390Y-125504788D01*
X114621258Y-125673705D01*
X114656242Y-125726063D01*
X114758082Y-125971928D01*
X114810000Y-126232937D01*
X114810000Y-126499063D01*
X114758082Y-126760072D01*
X114683063Y-126941186D01*
X114656241Y-127005939D01*
X114624276Y-127053778D01*
X114525237Y-127202000D01*
X114508390Y-127227212D01*
X114320212Y-127415390D01*
X114098939Y-127563241D01*
X114098938Y-127563242D01*
X114098937Y-127563242D01*
X113853072Y-127665082D01*
X113592063Y-127717000D01*
X113325937Y-127717000D01*
X113064928Y-127665082D01*
X112819063Y-127563242D01*
X112819062Y-127563242D01*
X112819061Y-127563241D01*
X112597788Y-127415390D01*
X112409610Y-127227212D01*
X112392764Y-127202000D01*
X112293724Y-127053778D01*
X112261759Y-127005939D01*
X112234938Y-126941186D01*
X112159918Y-126760072D01*
X112108000Y-126499063D01*
X112108000Y-126232937D01*
X112159918Y-125971928D01*
X112261758Y-125726063D01*
X112296743Y-125673705D01*
X112409610Y-125504788D01*
X112597788Y-125316610D01*
X112819061Y-125168759D01*
X113064928Y-125066918D01*
X113325937Y-125015000D01*
X113592063Y-125015000D01*
X113853072Y-125066918D01*
X113853072Y-125066918D01*
G37*
G36*
X122295228Y-125673703D02*
G01*
X122450100Y-125737853D01*
X122589481Y-125830985D01*
X122708015Y-125949519D01*
X122801147Y-126088900D01*
X122865297Y-126243772D01*
X122898000Y-126408184D01*
X122898000Y-126575816D01*
X122865297Y-126740228D01*
X122801147Y-126895100D01*
X122708015Y-127034481D01*
X122589481Y-127153015D01*
X122450100Y-127246147D01*
X122295228Y-127310297D01*
X122130816Y-127343000D01*
X121963184Y-127343000D01*
X121798772Y-127310297D01*
X121643900Y-127246147D01*
X121504519Y-127153015D01*
X121385985Y-127034481D01*
X121292853Y-126895100D01*
X121228703Y-126740228D01*
X121196000Y-126575816D01*
X121196000Y-126408184D01*
X121228703Y-126243772D01*
X121292853Y-126088900D01*
X121385985Y-125949519D01*
X121504519Y-125830985D01*
X121643900Y-125737853D01*
X121798772Y-125673703D01*
X121963184Y-125641000D01*
X122130816Y-125641000D01*
X122295228Y-125673703D01*
X122295228Y-125673703D01*
G37*
G36*
X128634443Y-125406519D02*
G01*
X128700627Y-125413037D01*
X128870466Y-125464557D01*
X129026991Y-125548222D01*
X129062729Y-125577552D01*
X129164186Y-125660814D01*
X129227409Y-125737853D01*
X129276778Y-125798009D01*
X129360443Y-125954534D01*
X129411963Y-126124373D01*
X129429359Y-126301000D01*
X129411963Y-126477627D01*
X129360443Y-126647466D01*
X129276778Y-126803991D01*
X129247448Y-126839729D01*
X129164186Y-126941186D01*
X129085283Y-127005939D01*
X129026991Y-127053778D01*
X128870466Y-127137443D01*
X128700627Y-127188963D01*
X128634443Y-127195481D01*
X128568260Y-127202000D01*
X128479740Y-127202000D01*
X128413557Y-127195481D01*
X128347373Y-127188963D01*
X128177534Y-127137443D01*
X128021009Y-127053778D01*
X127962717Y-127005939D01*
X127883814Y-126941186D01*
X127800552Y-126839729D01*
X127771222Y-126803991D01*
X127687557Y-126647466D01*
X127636037Y-126477627D01*
X127618641Y-126301000D01*
X127636037Y-126124373D01*
X127687557Y-125954534D01*
X127771222Y-125798009D01*
X127820591Y-125737853D01*
X127883814Y-125660814D01*
X127985271Y-125577552D01*
X128021009Y-125548222D01*
X128177534Y-125464557D01*
X128347373Y-125413037D01*
X128413557Y-125406519D01*
X128479740Y-125400000D01*
X128568260Y-125400000D01*
X128634443Y-125406519D01*
X128634443Y-125406519D01*
G37*
G36*
X131174443Y-125406519D02*
G01*
X131240627Y-125413037D01*
X131410466Y-125464557D01*
X131566991Y-125548222D01*
X131602729Y-125577552D01*
X131704186Y-125660814D01*
X131767409Y-125737853D01*
X131816778Y-125798009D01*
X131900443Y-125954534D01*
X131951963Y-126124373D01*
X131969359Y-126301000D01*
X131951963Y-126477627D01*
X131900443Y-126647466D01*
X131816778Y-126803991D01*
X131787448Y-126839729D01*
X131704186Y-126941186D01*
X131625283Y-127005939D01*
X131566991Y-127053778D01*
X131410466Y-127137443D01*
X131240627Y-127188963D01*
X131174443Y-127195481D01*
X131108260Y-127202000D01*
X131019740Y-127202000D01*
X130953557Y-127195481D01*
X130887373Y-127188963D01*
X130717534Y-127137443D01*
X130561009Y-127053778D01*
X130502717Y-127005939D01*
X130423814Y-126941186D01*
X130340552Y-126839729D01*
X130311222Y-126803991D01*
X130227557Y-126647466D01*
X130176037Y-126477627D01*
X130158641Y-126301000D01*
X130176037Y-126124373D01*
X130227557Y-125954534D01*
X130311222Y-125798009D01*
X130360591Y-125737853D01*
X130423814Y-125660814D01*
X130525271Y-125577552D01*
X130561009Y-125548222D01*
X130717534Y-125464557D01*
X130887373Y-125413037D01*
X130953557Y-125406519D01*
X131019740Y-125400000D01*
X131108260Y-125400000D01*
X131174443Y-125406519D01*
X131174443Y-125406519D01*
G37*
G36*
X129425000Y-124662000D02*
G01*
X127623000Y-124662000D01*
X127623000Y-122860000D01*
X129425000Y-122860000D01*
X129425000Y-124662000D01*
X129425000Y-124662000D01*
G37*
G36*
X131174442Y-122866518D02*
G01*
X131240627Y-122873037D01*
X131410466Y-122924557D01*
X131566991Y-123008222D01*
X131602729Y-123037552D01*
X131704186Y-123120814D01*
X131787448Y-123222271D01*
X131816778Y-123258009D01*
X131900443Y-123414534D01*
X131951963Y-123584373D01*
X131969359Y-123761000D01*
X131951963Y-123937627D01*
X131900443Y-124107466D01*
X131816778Y-124263991D01*
X131787448Y-124299729D01*
X131704186Y-124401186D01*
X131602729Y-124484448D01*
X131566991Y-124513778D01*
X131410466Y-124597443D01*
X131240627Y-124648963D01*
X131174442Y-124655482D01*
X131108260Y-124662000D01*
X131019740Y-124662000D01*
X130953558Y-124655482D01*
X130887373Y-124648963D01*
X130717534Y-124597443D01*
X130561009Y-124513778D01*
X130525271Y-124484448D01*
X130423814Y-124401186D01*
X130340552Y-124299729D01*
X130311222Y-124263991D01*
X130227557Y-124107466D01*
X130176037Y-123937627D01*
X130158641Y-123761000D01*
X130176037Y-123584373D01*
X130227557Y-123414534D01*
X130311222Y-123258009D01*
X130340552Y-123222271D01*
X130423814Y-123120814D01*
X130525271Y-123037552D01*
X130561009Y-123008222D01*
X130717534Y-122924557D01*
X130887373Y-122873037D01*
X130953558Y-122866518D01*
X131019740Y-122860000D01*
X131108260Y-122860000D01*
X131174442Y-122866518D01*
X131174442Y-122866518D01*
G37*
G36*
X110853072Y-120366918D02*
G01*
X111098939Y-120468759D01*
X111320212Y-120616610D01*
X111508390Y-120804788D01*
X111656241Y-121026061D01*
X111758082Y-121271928D01*
X111810000Y-121532938D01*
X111810000Y-121799062D01*
X111758082Y-122060072D01*
X111656241Y-122305939D01*
X111508390Y-122527212D01*
X111320212Y-122715390D01*
X111098939Y-122863241D01*
X111098938Y-122863242D01*
X111098937Y-122863242D01*
X110853072Y-122965082D01*
X110592063Y-123017000D01*
X110325937Y-123017000D01*
X110064928Y-122965082D01*
X109819063Y-122863242D01*
X109819062Y-122863242D01*
X109819061Y-122863241D01*
X109597788Y-122715390D01*
X109409610Y-122527212D01*
X109261759Y-122305939D01*
X109159918Y-122060072D01*
X109108000Y-121799062D01*
X109108000Y-121532938D01*
X109159918Y-121271928D01*
X109261759Y-121026061D01*
X109409610Y-120804788D01*
X109597788Y-120616610D01*
X109819061Y-120468759D01*
X110064928Y-120366918D01*
X110325937Y-120315000D01*
X110592063Y-120315000D01*
X110853072Y-120366918D01*
X110853072Y-120366918D01*
G37*
G36*
X117810000Y-123017000D02*
G01*
X115108000Y-123017000D01*
X115108000Y-120315000D01*
X117810000Y-120315000D01*
X117810000Y-123017000D01*
X117810000Y-123017000D01*
G37*
G36*
X122213823Y-118033313D02*
G01*
X122374242Y-118081976D01*
X122506906Y-118152886D01*
X122522078Y-118160996D01*
X122651659Y-118267341D01*
X122758004Y-118396922D01*
X122758005Y-118396924D01*
X122837024Y-118544758D01*
X122885687Y-118705177D01*
X122902117Y-118872000D01*
X122885687Y-119038823D01*
X122837024Y-119199242D01*
X122766114Y-119331906D01*
X122758004Y-119347078D01*
X122651659Y-119476659D01*
X122522078Y-119583004D01*
X122522076Y-119583005D01*
X122374242Y-119662024D01*
X122213823Y-119710687D01*
X122088804Y-119723000D01*
X122005196Y-119723000D01*
X121880177Y-119710687D01*
X121719758Y-119662024D01*
X121571924Y-119583005D01*
X121571922Y-119583004D01*
X121442341Y-119476659D01*
X121335996Y-119347078D01*
X121327886Y-119331906D01*
X121256976Y-119199242D01*
X121208313Y-119038823D01*
X121191883Y-118872000D01*
X121208313Y-118705177D01*
X121256976Y-118544758D01*
X121335995Y-118396924D01*
X121335996Y-118396922D01*
X121442341Y-118267341D01*
X121571922Y-118160996D01*
X121587094Y-118152886D01*
X121719758Y-118081976D01*
X121880177Y-118033313D01*
X122005196Y-118021000D01*
X122088804Y-118021000D01*
X122213823Y-118033313D01*
X122213823Y-118033313D01*
G37*
G36*
X105672000Y-113546000D02*
G01*
X103370000Y-113546000D01*
X103370000Y-111244000D01*
X105672000Y-111244000D01*
X105672000Y-113546000D01*
X105672000Y-113546000D01*
G37*
G36*
X114850271Y-111255103D02*
G01*
X114906635Y-111260654D01*
X115123600Y-111326470D01*
X115123602Y-111326471D01*
X115323555Y-111433347D01*
X115498818Y-111577182D01*
X115642653Y-111752445D01*
X115745325Y-111944533D01*
X115749530Y-111952400D01*
X115815346Y-112169365D01*
X115837569Y-112395000D01*
X115815346Y-112620635D01*
X115799645Y-112672395D01*
X115749529Y-112837602D01*
X115642653Y-113037555D01*
X115498818Y-113212818D01*
X115323555Y-113356653D01*
X115123602Y-113463529D01*
X115123600Y-113463530D01*
X114906635Y-113529346D01*
X114850271Y-113534897D01*
X114737545Y-113546000D01*
X114624455Y-113546000D01*
X114511729Y-113534897D01*
X114455365Y-113529346D01*
X114238400Y-113463530D01*
X114238398Y-113463529D01*
X114038445Y-113356653D01*
X113863182Y-113212818D01*
X113719347Y-113037555D01*
X113612471Y-112837602D01*
X113562356Y-112672395D01*
X113546654Y-112620635D01*
X113524431Y-112395000D01*
X113546654Y-112169365D01*
X113612470Y-111952400D01*
X113616675Y-111944533D01*
X113719347Y-111752445D01*
X113863182Y-111577182D01*
X114038445Y-111433347D01*
X114238398Y-111326471D01*
X114238400Y-111326470D01*
X114455365Y-111260654D01*
X114511729Y-111255103D01*
X114624455Y-111244000D01*
X114737545Y-111244000D01*
X114850271Y-111255103D01*
X114850271Y-111255103D01*
G37*
G36*
X122551000Y-113346000D02*
G01*
X120649000Y-113346000D01*
X120649000Y-111444000D01*
X122551000Y-111444000D01*
X122551000Y-113346000D01*
X122551000Y-113346000D01*
G37*
G36*
X124417395Y-111480546D02*
G01*
X124590466Y-111552234D01*
X124590467Y-111552235D01*
X124746227Y-111656310D01*
X124878690Y-111788773D01*
X124878691Y-111788775D01*
X124982766Y-111944534D01*
X125054454Y-112117605D01*
X125091000Y-112301333D01*
X125091000Y-112488667D01*
X125054454Y-112672395D01*
X124982766Y-112845466D01*
X124982765Y-112845467D01*
X124878690Y-113001227D01*
X124746227Y-113133690D01*
X124667818Y-113186081D01*
X124590466Y-113237766D01*
X124417395Y-113309454D01*
X124233667Y-113346000D01*
X124046333Y-113346000D01*
X123862605Y-113309454D01*
X123689534Y-113237766D01*
X123612182Y-113186081D01*
X123533773Y-113133690D01*
X123401310Y-113001227D01*
X123297235Y-112845467D01*
X123297234Y-112845466D01*
X123225546Y-112672395D01*
X123189000Y-112488667D01*
X123189000Y-112301333D01*
X123225546Y-112117605D01*
X123297234Y-111944534D01*
X123401309Y-111788775D01*
X123401310Y-111788773D01*
X123533773Y-111656310D01*
X123689533Y-111552235D01*
X123689534Y-111552234D01*
X123862605Y-111480546D01*
X124046333Y-111444000D01*
X124233667Y-111444000D01*
X124417395Y-111480546D01*
X124417395Y-111480546D01*
G37*
G36*
X105672000Y-109482000D02*
G01*
X103370000Y-109482000D01*
X103370000Y-107180000D01*
X105672000Y-107180000D01*
X105672000Y-109482000D01*
X105672000Y-109482000D01*
G37*
G36*
X114850271Y-107191103D02*
G01*
X114906635Y-107196654D01*
X115123600Y-107262470D01*
X115123602Y-107262471D01*
X115323555Y-107369347D01*
X115498818Y-107513182D01*
X115642653Y-107688445D01*
X115749529Y-107888398D01*
X115815346Y-108105366D01*
X115837569Y-108331000D01*
X115815346Y-108556634D01*
X115749529Y-108773602D01*
X115642653Y-108973555D01*
X115498818Y-109148818D01*
X115323555Y-109292653D01*
X115123602Y-109399529D01*
X115123600Y-109399530D01*
X114906635Y-109465346D01*
X114850271Y-109470897D01*
X114737545Y-109482000D01*
X114624455Y-109482000D01*
X114511729Y-109470897D01*
X114455365Y-109465346D01*
X114238400Y-109399530D01*
X114238398Y-109399529D01*
X114038445Y-109292653D01*
X113863182Y-109148818D01*
X113719347Y-108973555D01*
X113612471Y-108773602D01*
X113546654Y-108556634D01*
X113524431Y-108331000D01*
X113546654Y-108105366D01*
X113612471Y-107888398D01*
X113719347Y-107688445D01*
X113863182Y-107513182D01*
X114038445Y-107369347D01*
X114238398Y-107262471D01*
X114238400Y-107262470D01*
X114455365Y-107196654D01*
X114511729Y-107191103D01*
X114624455Y-107180000D01*
X114737545Y-107180000D01*
X114850271Y-107191103D01*
X114850271Y-107191103D01*
G37*
G36*
X114850271Y-103127103D02*
G01*
X114906635Y-103132654D01*
X115123600Y-103198470D01*
X115123602Y-103198471D01*
X115323555Y-103305347D01*
X115498818Y-103449182D01*
X115642653Y-103624445D01*
X115749529Y-103824398D01*
X115815346Y-104041366D01*
X115837569Y-104267000D01*
X115815346Y-104492634D01*
X115749529Y-104709602D01*
X115642653Y-104909555D01*
X115498818Y-105084818D01*
X115323555Y-105228653D01*
X115123602Y-105335529D01*
X115123600Y-105335530D01*
X114906635Y-105401346D01*
X114850271Y-105406897D01*
X114737545Y-105418000D01*
X114624455Y-105418000D01*
X114511729Y-105406897D01*
X114455365Y-105401346D01*
X114238400Y-105335530D01*
X114238398Y-105335529D01*
X114038445Y-105228653D01*
X113863182Y-105084818D01*
X113719347Y-104909555D01*
X113612471Y-104709602D01*
X113546654Y-104492634D01*
X113524431Y-104267000D01*
X113546654Y-104041366D01*
X113612471Y-103824398D01*
X113719347Y-103624445D01*
X113863182Y-103449182D01*
X114038445Y-103305347D01*
X114238398Y-103198471D01*
X114238400Y-103198470D01*
X114455365Y-103132654D01*
X114511729Y-103127103D01*
X114624455Y-103116000D01*
X114737545Y-103116000D01*
X114850271Y-103127103D01*
X114850271Y-103127103D01*
G37*
G36*
X105672000Y-105418000D02*
G01*
X103370000Y-105418000D01*
X103370000Y-103116000D01*
X105672000Y-103116000D01*
X105672000Y-105418000D01*
X105672000Y-105418000D01*
G37*
G36*
X123810000Y-104727000D02*
G01*
X121808000Y-104727000D01*
X121808000Y-102725000D01*
X123810000Y-102725000D01*
X123810000Y-104727000D01*
X123810000Y-104727000D01*
G37*
G36*
X123100981Y-100263468D02*
G01*
X123283151Y-100338926D01*
X123447100Y-100448473D01*
X123586527Y-100587900D01*
X123696074Y-100751849D01*
X123771532Y-100934019D01*
X123810000Y-101127410D01*
X123810000Y-101324590D01*
X123771532Y-101517981D01*
X123696074Y-101700151D01*
X123586527Y-101864100D01*
X123447100Y-102003527D01*
X123283151Y-102113074D01*
X123100981Y-102188532D01*
X123004285Y-102207766D01*
X122907591Y-102227000D01*
X122710409Y-102227000D01*
X122613715Y-102207766D01*
X122517019Y-102188532D01*
X122334849Y-102113074D01*
X122170900Y-102003527D01*
X122031473Y-101864100D01*
X121921926Y-101700151D01*
X121846468Y-101517981D01*
X121808000Y-101324590D01*
X121808000Y-101127410D01*
X121846468Y-100934019D01*
X121921926Y-100751849D01*
X122031473Y-100587900D01*
X122170900Y-100448473D01*
X122334849Y-100338926D01*
X122517019Y-100263468D01*
X122613715Y-100244234D01*
X122710409Y-100225000D01*
X122907591Y-100225000D01*
X123100981Y-100263468D01*
X123100981Y-100263468D01*
G37*
G36*
X105672000Y-101354000D02*
G01*
X103370000Y-101354000D01*
X103370000Y-99052000D01*
X105672000Y-99052000D01*
X105672000Y-101354000D01*
X105672000Y-101354000D01*
G37*
G36*
X114850271Y-99063103D02*
G01*
X114906635Y-99068654D01*
X115123600Y-99134470D01*
X115123602Y-99134471D01*
X115323555Y-99241347D01*
X115498818Y-99385182D01*
X115642653Y-99560445D01*
X115749529Y-99760398D01*
X115749530Y-99760400D01*
X115815346Y-99977365D01*
X115837569Y-100203000D01*
X115824182Y-100338926D01*
X115815346Y-100428634D01*
X115749529Y-100645602D01*
X115642653Y-100845555D01*
X115498818Y-101020818D01*
X115323555Y-101164653D01*
X115123602Y-101271529D01*
X115123600Y-101271530D01*
X114906635Y-101337346D01*
X114850271Y-101342897D01*
X114737545Y-101354000D01*
X114624455Y-101354000D01*
X114511729Y-101342897D01*
X114455365Y-101337346D01*
X114238400Y-101271530D01*
X114238398Y-101271529D01*
X114038445Y-101164653D01*
X113863182Y-101020818D01*
X113719347Y-100845555D01*
X113612471Y-100645602D01*
X113546654Y-100428634D01*
X113537819Y-100338926D01*
X113524431Y-100203000D01*
X113546654Y-99977365D01*
X113612470Y-99760400D01*
X113612471Y-99760398D01*
X113719347Y-99560445D01*
X113863182Y-99385182D01*
X114038445Y-99241347D01*
X114238398Y-99134471D01*
X114238400Y-99134470D01*
X114455365Y-99068654D01*
X114511729Y-99063103D01*
X114624455Y-99052000D01*
X114737545Y-99052000D01*
X114850271Y-99063103D01*
X114850271Y-99063103D01*
G37*
G36*
X123004285Y-97744234D02*
G01*
X123100981Y-97763468D01*
X123283151Y-97838926D01*
X123447100Y-97948473D01*
X123586527Y-98087900D01*
X123696074Y-98251849D01*
X123771532Y-98434019D01*
X123810000Y-98627410D01*
X123810000Y-98824590D01*
X123771532Y-99017981D01*
X123696074Y-99200151D01*
X123586527Y-99364100D01*
X123447100Y-99503527D01*
X123283151Y-99613074D01*
X123100981Y-99688532D01*
X123004285Y-99707766D01*
X122907591Y-99727000D01*
X122710409Y-99727000D01*
X122613715Y-99707766D01*
X122517019Y-99688532D01*
X122334849Y-99613074D01*
X122170900Y-99503527D01*
X122031473Y-99364100D01*
X121921926Y-99200151D01*
X121846468Y-99017981D01*
X121808000Y-98824590D01*
X121808000Y-98627410D01*
X121846468Y-98434019D01*
X121921926Y-98251849D01*
X122031473Y-98087900D01*
X122170900Y-97948473D01*
X122334849Y-97838926D01*
X122517019Y-97763468D01*
X122710409Y-97725000D01*
X122907591Y-97725000D01*
X123004285Y-97744234D01*
X123004285Y-97744234D01*
G37*
G36*
X116707228Y-94431703D02*
G01*
X116862100Y-94495853D01*
X117001481Y-94588985D01*
X117120015Y-94707519D01*
X117213147Y-94846900D01*
X117277297Y-95001772D01*
X117310000Y-95166184D01*
X117310000Y-95333816D01*
X117277297Y-95498228D01*
X117213147Y-95653100D01*
X117120015Y-95792481D01*
X117001481Y-95911015D01*
X116862100Y-96004147D01*
X116707228Y-96068297D01*
X116542816Y-96101000D01*
X116375184Y-96101000D01*
X116210772Y-96068297D01*
X116055900Y-96004147D01*
X115916519Y-95911015D01*
X115797985Y-95792481D01*
X115704853Y-95653100D01*
X115640703Y-95498228D01*
X115608000Y-95333816D01*
X115608000Y-95166184D01*
X115640703Y-95001772D01*
X115704853Y-94846900D01*
X115797985Y-94707519D01*
X115916519Y-94588985D01*
X116055900Y-94495853D01*
X116210772Y-94431703D01*
X116375184Y-94399000D01*
X116542816Y-94399000D01*
X116707228Y-94431703D01*
X116707228Y-94431703D01*
G37*
G36*
X107705719Y-92689520D02*
G01*
X107894880Y-92746901D01*
X107894883Y-92746902D01*
X107987333Y-92796318D01*
X108069212Y-92840083D01*
X108222015Y-92965485D01*
X108347417Y-93118288D01*
X108440599Y-93292619D01*
X108497980Y-93481780D01*
X108512500Y-93629206D01*
X108512500Y-93822793D01*
X108497980Y-93970219D01*
X108440599Y-94159380D01*
X108440598Y-94159383D01*
X108391182Y-94251833D01*
X108347417Y-94333712D01*
X108222015Y-94486515D01*
X108069212Y-94611917D01*
X107894881Y-94705099D01*
X107705720Y-94762480D01*
X107509000Y-94781855D01*
X107312281Y-94762480D01*
X107123120Y-94705099D01*
X106948788Y-94611917D01*
X106795985Y-94486515D01*
X106670583Y-94333712D01*
X106577401Y-94159381D01*
X106520020Y-93970220D01*
X106505500Y-93822794D01*
X106505500Y-93629207D01*
X106520020Y-93481781D01*
X106577401Y-93292620D01*
X106577402Y-93292617D01*
X106626818Y-93200167D01*
X106670583Y-93118288D01*
X106795985Y-92965485D01*
X106948788Y-92840083D01*
X107123119Y-92746901D01*
X107312280Y-92689520D01*
X107509000Y-92670145D01*
X107705719Y-92689520D01*
X107705719Y-92689520D01*
G37*
G36*
X110245719Y-92689520D02*
G01*
X110434880Y-92746901D01*
X110434883Y-92746902D01*
X110527333Y-92796318D01*
X110609212Y-92840083D01*
X110762015Y-92965485D01*
X110887417Y-93118288D01*
X110980599Y-93292619D01*
X111037980Y-93481780D01*
X111052500Y-93629206D01*
X111052500Y-93822793D01*
X111037980Y-93970219D01*
X110980599Y-94159380D01*
X110980598Y-94159383D01*
X110931182Y-94251833D01*
X110887417Y-94333712D01*
X110762015Y-94486515D01*
X110609212Y-94611917D01*
X110434881Y-94705099D01*
X110245720Y-94762480D01*
X110049000Y-94781855D01*
X109852281Y-94762480D01*
X109663120Y-94705099D01*
X109488788Y-94611917D01*
X109335985Y-94486515D01*
X109210583Y-94333712D01*
X109117401Y-94159381D01*
X109060020Y-93970220D01*
X109045500Y-93822794D01*
X109045500Y-93629207D01*
X109060020Y-93481781D01*
X109117401Y-93292620D01*
X109117402Y-93292617D01*
X109166818Y-93200167D01*
X109210583Y-93118288D01*
X109335985Y-92965485D01*
X109488788Y-92840083D01*
X109663119Y-92746901D01*
X109852280Y-92689520D01*
X110049000Y-92670145D01*
X110245719Y-92689520D01*
X110245719Y-92689520D01*
G37*
G36*
X105972500Y-94777000D02*
G01*
X103965500Y-94777000D01*
X103965500Y-92675000D01*
X105972500Y-92675000D01*
X105972500Y-94777000D01*
X105972500Y-94777000D01*
G37*
G36*
X122551000Y-91248000D02*
G01*
X120649000Y-91248000D01*
X120649000Y-89346000D01*
X122551000Y-89346000D01*
X122551000Y-91248000D01*
X122551000Y-91248000D01*
G37*
G36*
X124417395Y-89382546D02*
G01*
X124590466Y-89454234D01*
X124590467Y-89454235D01*
X124746227Y-89558310D01*
X124878690Y-89690773D01*
X124878691Y-89690775D01*
X124982766Y-89846534D01*
X125054454Y-90019605D01*
X125091000Y-90203333D01*
X125091000Y-90390667D01*
X125054454Y-90574395D01*
X124982766Y-90747466D01*
X124982765Y-90747467D01*
X124878690Y-90903227D01*
X124746227Y-91035690D01*
X124667818Y-91088081D01*
X124590466Y-91139766D01*
X124417395Y-91211454D01*
X124233667Y-91248000D01*
X124046333Y-91248000D01*
X123862605Y-91211454D01*
X123689534Y-91139766D01*
X123612182Y-91088081D01*
X123533773Y-91035690D01*
X123401310Y-90903227D01*
X123297235Y-90747467D01*
X123297234Y-90747466D01*
X123225546Y-90574395D01*
X123189000Y-90390667D01*
X123189000Y-90203333D01*
X123225546Y-90019605D01*
X123297234Y-89846534D01*
X123401309Y-89690775D01*
X123401310Y-89690773D01*
X123533773Y-89558310D01*
X123689533Y-89454235D01*
X123689534Y-89454234D01*
X123862605Y-89382546D01*
X124046333Y-89346000D01*
X124233667Y-89346000D01*
X124417395Y-89382546D01*
X124417395Y-89382546D01*
G37*
G36*
X116625823Y-86791313D02*
G01*
X116786242Y-86839976D01*
X116918906Y-86910886D01*
X116934078Y-86918996D01*
X117063659Y-87025341D01*
X117170004Y-87154922D01*
X117170005Y-87154924D01*
X117249024Y-87302758D01*
X117297687Y-87463177D01*
X117314117Y-87630000D01*
X117297687Y-87796823D01*
X117249024Y-87957242D01*
X117178114Y-88089906D01*
X117170004Y-88105078D01*
X117063659Y-88234659D01*
X116934078Y-88341004D01*
X116934076Y-88341005D01*
X116786242Y-88420024D01*
X116625823Y-88468687D01*
X116500804Y-88481000D01*
X116417196Y-88481000D01*
X116292177Y-88468687D01*
X116131758Y-88420024D01*
X115983924Y-88341005D01*
X115983922Y-88341004D01*
X115854341Y-88234659D01*
X115747996Y-88105078D01*
X115739886Y-88089906D01*
X115668976Y-87957242D01*
X115620313Y-87796823D01*
X115603883Y-87630000D01*
X115620313Y-87463177D01*
X115668976Y-87302758D01*
X115747995Y-87154924D01*
X115747996Y-87154922D01*
X115854341Y-87025341D01*
X115983922Y-86918996D01*
X115999094Y-86910886D01*
X116131758Y-86839976D01*
X116292177Y-86791313D01*
X116417196Y-86779000D01*
X116500804Y-86779000D01*
X116625823Y-86791313D01*
X116625823Y-86791313D01*
G37*
G36*
X110462564Y-81103389D02*
G01*
X110653833Y-81182615D01*
X110653835Y-81182616D01*
X110725308Y-81230373D01*
X110825973Y-81297635D01*
X110972365Y-81444027D01*
X111087385Y-81616167D01*
X111166611Y-81807436D01*
X111207000Y-82010484D01*
X111207000Y-82217516D01*
X111166611Y-82420564D01*
X111087385Y-82611833D01*
X111087384Y-82611835D01*
X110972365Y-82783973D01*
X110825973Y-82930365D01*
X110653835Y-83045384D01*
X110653834Y-83045385D01*
X110653833Y-83045385D01*
X110462564Y-83124611D01*
X110259516Y-83165000D01*
X110052484Y-83165000D01*
X109849436Y-83124611D01*
X109658167Y-83045385D01*
X109658166Y-83045385D01*
X109658165Y-83045384D01*
X109486027Y-82930365D01*
X109339635Y-82783973D01*
X109224616Y-82611835D01*
X109224615Y-82611833D01*
X109145389Y-82420564D01*
X109105000Y-82217516D01*
X109105000Y-82010484D01*
X109145389Y-81807436D01*
X109224615Y-81616167D01*
X109339635Y-81444027D01*
X109486027Y-81297635D01*
X109586692Y-81230373D01*
X109658165Y-81182616D01*
X109658167Y-81182615D01*
X109849436Y-81103389D01*
X110052484Y-81063000D01*
X110259516Y-81063000D01*
X110462564Y-81103389D01*
X110462564Y-81103389D01*
G37*
G36*
X106207000Y-83165000D02*
G01*
X104105000Y-83165000D01*
X104105000Y-81063000D01*
X106207000Y-81063000D01*
X106207000Y-83165000D01*
X106207000Y-83165000D01*
G37*
G36*
X128631493Y-80512228D02*
G01*
X128700627Y-80519037D01*
X128870466Y-80570557D01*
X129026991Y-80654222D01*
X129062729Y-80683552D01*
X129164186Y-80766814D01*
X129247448Y-80868271D01*
X129276778Y-80904009D01*
X129360443Y-81060534D01*
X129411963Y-81230373D01*
X129429359Y-81407000D01*
X129411963Y-81583627D01*
X129360443Y-81753466D01*
X129276778Y-81909991D01*
X129247448Y-81945729D01*
X129164186Y-82047186D01*
X129062729Y-82130448D01*
X129026991Y-82159778D01*
X128870466Y-82243443D01*
X128700627Y-82294963D01*
X128634443Y-82301481D01*
X128568260Y-82308000D01*
X128479740Y-82308000D01*
X128413557Y-82301481D01*
X128347373Y-82294963D01*
X128177534Y-82243443D01*
X128021009Y-82159778D01*
X127985271Y-82130448D01*
X127883814Y-82047186D01*
X127800552Y-81945729D01*
X127771222Y-81909991D01*
X127687557Y-81753466D01*
X127636037Y-81583627D01*
X127618641Y-81407000D01*
X127636037Y-81230373D01*
X127687557Y-81060534D01*
X127771222Y-80904009D01*
X127800552Y-80868271D01*
X127883814Y-80766814D01*
X127985271Y-80683552D01*
X128021009Y-80654222D01*
X128177534Y-80570557D01*
X128347373Y-80519037D01*
X128416507Y-80512228D01*
X128479740Y-80506000D01*
X128568260Y-80506000D01*
X128631493Y-80512228D01*
X128631493Y-80512228D01*
G37*
G36*
X131171493Y-80512228D02*
G01*
X131240627Y-80519037D01*
X131410466Y-80570557D01*
X131566991Y-80654222D01*
X131602729Y-80683552D01*
X131704186Y-80766814D01*
X131787448Y-80868271D01*
X131816778Y-80904009D01*
X131900443Y-81060534D01*
X131951963Y-81230373D01*
X131969359Y-81407000D01*
X131951963Y-81583627D01*
X131900443Y-81753466D01*
X131816778Y-81909991D01*
X131787448Y-81945729D01*
X131704186Y-82047186D01*
X131602729Y-82130448D01*
X131566991Y-82159778D01*
X131410466Y-82243443D01*
X131240627Y-82294963D01*
X131174443Y-82301481D01*
X131108260Y-82308000D01*
X131019740Y-82308000D01*
X130953557Y-82301481D01*
X130887373Y-82294963D01*
X130717534Y-82243443D01*
X130561009Y-82159778D01*
X130525271Y-82130448D01*
X130423814Y-82047186D01*
X130340552Y-81945729D01*
X130311222Y-81909991D01*
X130227557Y-81753466D01*
X130176037Y-81583627D01*
X130158641Y-81407000D01*
X130176037Y-81230373D01*
X130227557Y-81060534D01*
X130311222Y-80904009D01*
X130340552Y-80868271D01*
X130423814Y-80766814D01*
X130525271Y-80683552D01*
X130561009Y-80654222D01*
X130717534Y-80570557D01*
X130887373Y-80519037D01*
X130956507Y-80512228D01*
X131019740Y-80506000D01*
X131108260Y-80506000D01*
X131171493Y-80512228D01*
X131171493Y-80512228D01*
G37*
G36*
X116548000Y-81115000D02*
G01*
X114846000Y-81115000D01*
X114846000Y-79413000D01*
X116548000Y-79413000D01*
X116548000Y-81115000D01*
X116548000Y-81115000D01*
G37*
G36*
X118445228Y-79445703D02*
G01*
X118600100Y-79509853D01*
X118739481Y-79602985D01*
X118858015Y-79721519D01*
X118951147Y-79860900D01*
X119015297Y-80015772D01*
X119048000Y-80180184D01*
X119048000Y-80347816D01*
X119015297Y-80512228D01*
X118951147Y-80667100D01*
X118858015Y-80806481D01*
X118739481Y-80925015D01*
X118600100Y-81018147D01*
X118445228Y-81082297D01*
X118280816Y-81115000D01*
X118113184Y-81115000D01*
X117948772Y-81082297D01*
X117793900Y-81018147D01*
X117654519Y-80925015D01*
X117535985Y-80806481D01*
X117442853Y-80667100D01*
X117378703Y-80512228D01*
X117346000Y-80347816D01*
X117346000Y-80180184D01*
X117378703Y-80015772D01*
X117442853Y-79860900D01*
X117535985Y-79721519D01*
X117654519Y-79602985D01*
X117793900Y-79509853D01*
X117948772Y-79445703D01*
X118113184Y-79413000D01*
X118280816Y-79413000D01*
X118445228Y-79445703D01*
X118445228Y-79445703D01*
G37*
G36*
X131174443Y-77972519D02*
G01*
X131240627Y-77979037D01*
X131410466Y-78030557D01*
X131566991Y-78114222D01*
X131602729Y-78143552D01*
X131704186Y-78226814D01*
X131787448Y-78328271D01*
X131816778Y-78364009D01*
X131900443Y-78520534D01*
X131951963Y-78690373D01*
X131969359Y-78867000D01*
X131951963Y-79043627D01*
X131900443Y-79213466D01*
X131816778Y-79369991D01*
X131787448Y-79405729D01*
X131704186Y-79507186D01*
X131602729Y-79590448D01*
X131566991Y-79619778D01*
X131410466Y-79703443D01*
X131240627Y-79754963D01*
X131174442Y-79761482D01*
X131108260Y-79768000D01*
X131019740Y-79768000D01*
X130953558Y-79761482D01*
X130887373Y-79754963D01*
X130717534Y-79703443D01*
X130561009Y-79619778D01*
X130525271Y-79590448D01*
X130423814Y-79507186D01*
X130340552Y-79405729D01*
X130311222Y-79369991D01*
X130227557Y-79213466D01*
X130176037Y-79043627D01*
X130158641Y-78867000D01*
X130176037Y-78690373D01*
X130227557Y-78520534D01*
X130311222Y-78364009D01*
X130340552Y-78328271D01*
X130423814Y-78226814D01*
X130525271Y-78143552D01*
X130561009Y-78114222D01*
X130717534Y-78030557D01*
X130887373Y-77979037D01*
X130953557Y-77972519D01*
X131019740Y-77966000D01*
X131108260Y-77966000D01*
X131174443Y-77972519D01*
X131174443Y-77972519D01*
G37*
G36*
X129425000Y-79768000D02*
G01*
X127623000Y-79768000D01*
X127623000Y-77966000D01*
X129425000Y-77966000D01*
X129425000Y-79768000D01*
X129425000Y-79768000D01*
G37*
M02*
