G04 #@! TF.GenerationSoftware,KiCad,Pcbnew,(5.1.2)-1*
G04 #@! TF.CreationDate,2019-05-11T09:03:37-04:00*
G04 #@! TF.ProjectId,PowerSupply,506f7765-7253-4757-9070-6c792e6b6963,1*
G04 #@! TF.SameCoordinates,Original*
G04 #@! TF.FileFunction,Copper,L1,Top*
G04 #@! TF.FilePolarity,Positive*
%FSLAX46Y46*%
G04 Gerber Fmt 4.6, Leading zero omitted, Abs format (unit mm)*
G04 Created by KiCad (PCBNEW (5.1.2)-1) date 2019-05-11 09:03:37*
%MOMM*%
%LPD*%
G04 APERTURE LIST*
%ADD10R,2.200000X2.200000*%
%ADD11O,2.200000X2.200000*%
%ADD12O,1.600000X1.600000*%
%ADD13C,1.600000*%
%ADD14R,2.000000X2.000000*%
%ADD15C,2.000000*%
%ADD16R,1.600000X1.600000*%
%ADD17C,1.800000*%
%ADD18R,1.800000X1.800000*%
%ADD19R,2.600000X2.600000*%
%ADD20C,2.600000*%
%ADD21R,1.700000X1.700000*%
%ADD22O,1.700000X1.700000*%
%ADD23R,1.900000X1.900000*%
%ADD24C,1.900000*%
%ADD25R,1.905000X2.000000*%
%ADD26O,1.905000X2.000000*%
%ADD27C,0.300000*%
%ADD28C,0.250000*%
G04 APERTURE END LIST*
D10*
X104521000Y-108331000D03*
D11*
X114681000Y-108331000D03*
D12*
X116459000Y-87630000D03*
D13*
X116459000Y-95250000D03*
D14*
X105156000Y-82114000D03*
D15*
X110156000Y-82114000D03*
D16*
X115697000Y-80264000D03*
D13*
X118197000Y-80264000D03*
D10*
X104521000Y-100203000D03*
D11*
X114681000Y-100203000D03*
X114681000Y-112395000D03*
D10*
X104521000Y-112395000D03*
D11*
X114681000Y-104267000D03*
D10*
X104521000Y-104267000D03*
D17*
X124140000Y-112395000D03*
D18*
X121600000Y-112395000D03*
X121600000Y-90297000D03*
D17*
X124140000Y-90297000D03*
D19*
X116459000Y-121666000D03*
D20*
X110459000Y-121666000D03*
X113459000Y-126366000D03*
D21*
X128524000Y-78867000D03*
D22*
X131064000Y-78867000D03*
X128524000Y-81407000D03*
X131064000Y-81407000D03*
X131064000Y-126301000D03*
X128524000Y-126301000D03*
X131064000Y-123761000D03*
D21*
X128524000Y-123761000D03*
D13*
X122047000Y-126492000D03*
D12*
X122047000Y-118872000D03*
D23*
X122809000Y-103726000D03*
D24*
X122809000Y-101226000D03*
X122809000Y-98726000D03*
D25*
X104969000Y-93726000D03*
D26*
X107509000Y-93726000D03*
X110049000Y-93726000D03*
D27*
X105156000Y-93539000D02*
X104969000Y-93726000D01*
X105156000Y-82114000D02*
X105156000Y-93539000D01*
X104521000Y-110995000D02*
X104521000Y-108331000D01*
X104521000Y-112395000D02*
X104521000Y-110995000D01*
X104969000Y-95026000D02*
X104969000Y-93726000D01*
X106071001Y-96128001D02*
X104969000Y-95026000D01*
X106071001Y-108180999D02*
X106071001Y-96128001D01*
X105921000Y-108331000D02*
X106071001Y-108180999D01*
X104521000Y-108331000D02*
X105921000Y-108331000D01*
X120249999Y-102441499D02*
X121465498Y-101226000D01*
X120249999Y-115943629D02*
X120249999Y-102441499D01*
X122047000Y-117740630D02*
X120249999Y-115943629D01*
X122047000Y-118872000D02*
X122047000Y-117740630D01*
X110049000Y-92426000D02*
X110049000Y-93726000D01*
X110049000Y-84812000D02*
X110049000Y-92426000D01*
X114597000Y-80264000D02*
X110049000Y-84812000D01*
X115697000Y-80264000D02*
X114597000Y-80264000D01*
X121465498Y-101226000D02*
X122809000Y-101226000D01*
X120584998Y-101226000D02*
X121465498Y-101226000D01*
X113084998Y-93726000D02*
X120584998Y-101226000D01*
X110049000Y-93726000D02*
X113084998Y-93726000D01*
D28*
X116459000Y-110109000D02*
X114681000Y-108331000D01*
X116459000Y-121666000D02*
X116459000Y-110109000D01*
X102995999Y-100378001D02*
X103171000Y-100203000D01*
X102995999Y-113835001D02*
X102995999Y-100378001D01*
X103080999Y-113920001D02*
X102995999Y-113835001D01*
X107536365Y-113920001D02*
X103080999Y-113920001D01*
X103171000Y-100203000D02*
X104521000Y-100203000D01*
X113125366Y-108331000D02*
X107536365Y-113920001D01*
X114681000Y-108331000D02*
X113125366Y-108331000D01*
X124140000Y-124399000D02*
X124140000Y-112395000D01*
X122047000Y-126492000D02*
X124140000Y-124399000D01*
X117590370Y-95250000D02*
X116459000Y-95250000D01*
X119212002Y-95250000D02*
X117590370Y-95250000D01*
X123240001Y-91222001D02*
X119212002Y-95250000D01*
X123240001Y-91196999D02*
X123240001Y-91222001D01*
X124140000Y-90297000D02*
X123240001Y-91196999D01*
D27*
X131064000Y-123761000D02*
X128524000Y-123761000D01*
X122809000Y-104976000D02*
X122809000Y-103726000D01*
X125490001Y-107657001D02*
X122809000Y-104976000D01*
X125490001Y-120954766D02*
X125490001Y-107657001D01*
X128296235Y-123761000D02*
X125490001Y-120954766D01*
X128524000Y-123761000D02*
X128296235Y-123761000D01*
X122809000Y-103726000D02*
X122809000Y-103298002D01*
X131064000Y-78867000D02*
X128524000Y-78867000D01*
X125490001Y-102294999D02*
X125490001Y-88025001D01*
X122809000Y-103726000D02*
X124059000Y-103726000D01*
X124059000Y-103726000D02*
X125490001Y-102294999D01*
X125490001Y-88025001D02*
X125095000Y-87630000D01*
X119634000Y-86607000D02*
X119634000Y-87630000D01*
X127374000Y-78867000D02*
X119634000Y-86607000D01*
X128524000Y-78867000D02*
X127374000Y-78867000D01*
X125095000Y-87630000D02*
X119634000Y-87630000D01*
X119634000Y-87630000D02*
X116459000Y-87630000D01*
M02*
